<svg width="50" height="50" viewBox="0 0 50 50" fill="none" xmlns="http://www.w3.org/2000/svg">
<g clip-path="url(#clip0)">
<path d="M0 18.6523C0.253906 17.6562 0.556641 16.6895 1.21094 15.8691C2.38281 14.4141 3.88672 13.6035 5.75195 13.584C8.41797 13.5547 11.084 13.5547 13.7598 13.584C16.9043 13.6133 19.502 16.2012 19.5215 19.3555C19.541 22.9492 19.5703 26.543 19.5117 30.1465C19.4727 32.6172 18.2324 34.3945 16.0059 35.4395C15.7031 35.5859 15.6152 35.7324 15.6152 36.0547C15.625 39.8926 15.5957 43.7305 15.6348 47.5781C15.6445 48.7891 15.2246 49.6191 14.0625 50.0098C13.7988 50.0098 13.5449 50.0098 13.2813 50.0098C12.1094 49.6191 11.6895 48.7891 11.6992 47.5781C11.7383 43.1055 11.709 38.6328 11.7188 34.1602C11.7188 32.8906 12.4609 32.1191 13.7109 32.041C14.8047 31.9824 15.6152 31.1816 15.6152 30.0879C15.625 26.543 15.625 22.998 15.6152 19.4531C15.6152 18.3496 14.7656 17.5 13.6621 17.5C11.0547 17.4902 8.45703 17.4902 5.84961 17.5C4.73633 17.5098 3.90625 18.3398 3.90625 19.4531C3.89648 22.998 3.89648 26.543 3.90625 30.0879C3.90625 31.1523 4.70703 31.9629 5.77148 32.041C7.09961 32.1289 7.8125 32.8809 7.8125 34.209C7.8125 38.6621 7.79297 43.125 7.82227 47.5781C7.83203 48.7793 7.42188 49.5996 6.25 50C5.98633 50 5.73242 50 5.46875 50C4.29688 49.6094 3.87695 48.7793 3.89648 47.5684C3.93555 43.7695 3.90625 39.9609 3.91602 36.1621C3.91602 35.7812 3.83789 35.5762 3.45703 35.4004C1.82617 34.668 0.761719 33.4082 0.234375 31.6992C0.136719 31.3965 0.078125 31.0742 0 30.7617C0 26.7285 0 22.6855 0 18.6523Z" fill="#059DFD"/>
<path d="M50 25.6834C49.8145 26.7869 49.7363 27.91 49.4336 28.9842C47.2363 36.6014 42.2754 41.3475 34.502 42.9295C29.6094 43.9256 25 42.8709 20.8008 40.1561C19.9512 39.6092 19.6387 38.7205 19.9414 37.8318C20.2246 37.0115 21.0352 36.4744 21.9043 36.5135C22.3047 36.533 22.6563 36.699 22.9883 36.9139C28.5547 40.4588 35.4199 40.1951 40.5078 36.0057C45.2637 32.0896 47.0703 26.9334 45.6445 20.9471C44.248 15.0877 40.4004 11.3475 34.541 9.89238C30.2051 8.81816 26.1523 9.6873 22.4805 12.2557C21.7578 12.7537 21.0156 12.9002 20.2441 12.4705C19.5605 12.0994 19.2285 11.4744 19.248 10.6932C19.2676 10.0486 19.5605 9.54082 20.0781 9.16972C23.8379 6.48418 28.0176 5.26347 32.6172 5.64433C38.1543 6.10332 42.6367 8.57402 46.0645 12.9197C48.3203 15.7908 49.5898 19.0721 49.9121 22.7244C49.9219 22.8709 49.9707 23.0076 50 23.1443C50 23.9939 50 24.8338 50 25.6834Z" fill="#059DFD"/>
<path d="M15.625 5.86914C15.625 9.10156 12.9785 11.7285 9.74609 11.7188C6.52343 11.709 3.89648 9.0625 3.90625 5.83008C3.91601 2.62695 6.55273 0 9.75586 0C12.9883 0 15.625 2.63672 15.625 5.86914ZM9.77539 3.90625C8.70117 3.89648 7.82226 4.77539 7.8125 5.84961C7.8125 6.92383 8.6914 7.80273 9.75586 7.8125C10.8301 7.8125 11.709 6.94336 11.7187 5.86914C11.7187 4.79492 10.8398 3.91602 9.77539 3.90625Z" fill="#059DFD"/>
<path opacity="0.3" d="M29.2969 20.3321C29.2969 18.8477 29.2969 17.3731 29.2969 15.8888C29.2969 14.6485 30.1074 13.7794 31.2402 13.7696C32.373 13.7598 33.2031 14.629 33.2031 15.8595C33.2129 18.0763 33.2129 20.2833 33.1934 22.5001C33.1934 22.8712 33.291 22.9591 33.6523 22.9591C34.8535 22.9395 36.0645 22.9493 37.2656 22.9493C38.4863 22.9493 39.3652 23.7794 39.3555 24.922C39.3457 26.0352 38.4766 26.8556 37.2852 26.8556C35.3125 26.8653 33.3496 26.8653 31.377 26.8556C30.1172 26.8556 29.3066 26.0352 29.3066 24.7755C29.2969 23.2911 29.2969 21.8165 29.2969 20.3321Z" fill="#059DFD"/>
</g>
<defs>
<clipPath id="clip0">
<rect width="50" height="50" fill="white"/>
</clipPath>
</defs>
</svg>
