<svg width="50" height="50" viewBox="0 0 50 50" fill="none" xmlns="http://www.w3.org/2000/svg">
<path d="M37.5586 39.668C37.5488 39.6582 37.5391 39.6582 37.5293 39.6484C36.6895 39.1504 35.6055 39.3555 35.0195 40.1367C32.1973 43.8477 27.7637 46.123 22.998 46.123C14.668 46.123 7.89063 39.3457 7.89063 31.0156C7.89063 26.9727 10.1953 21.5039 14.5508 15.2051C17.6855 10.6641 21.1426 6.75781 22.998 4.75586C24.541 6.41602 27.1973 9.4043 29.8438 12.9785C30.459 13.8184 31.6406 14.0039 32.4902 13.4082C32.5 13.3984 32.5098 13.3887 32.5195 13.3887C33.3984 12.7637 33.6035 11.543 32.959 10.6738C28.8086 5.06836 24.6484 0.839844 24.3652 0.556641C24.0137 0.205078 23.5059 0 22.9883 0C22.4707 0 21.9727 0.205078 21.6113 0.556641C21.1328 1.03516 16.8164 5.41016 12.5781 11.2109C6.89453 19.0234 4.00391 25.6836 4.00391 31.0156C4.00391 41.4844 12.5195 50 22.998 50C28.9941 50 34.5605 47.1582 38.1055 42.5C38.7988 41.582 38.5547 40.2539 37.5586 39.668Z" fill="#059DFD"/>
<path opacity="0.3" d="M27.0019 35.9668C26.2598 35.9668 25.5957 35.5567 25.2637 34.8926L21.7871 27.9395H17.9785C16.9043 27.9395 16.0352 27.0703 16.0352 25.9961C16.0352 24.9219 16.9043 24.0527 17.9785 24.0527H22.9883C23.7305 24.0527 24.3945 24.4629 24.7266 25.127L26.8652 29.4043L31.2305 19.2188C31.5234 18.5254 32.207 18.0664 32.959 18.0371H32.998H33.0371C33.7988 18.0762 34.4336 18.4766 34.7558 19.1113L40.2344 30.0684H44.043C45.1172 30.0684 45.9863 30.9375 45.9863 32.0117C45.9863 33.0859 45.1172 33.9551 44.043 33.9551H39.0332C38.291 33.9551 37.6269 33.5449 37.2949 32.8809L33.1543 24.5898L28.7891 34.7754C28.4863 35.4688 27.8125 35.9277 27.0605 35.957H27.0508H27.0019V35.9668Z" fill="#059DFD"/>
</svg>
