<svg width="50" height="50" viewBox="0 0 50 50" fill="none" xmlns="http://www.w3.org/2000/svg">
<path d="M39.9121 15.0781C38.1836 12.6367 36.8164 10.7129 36.8164 8.39844C36.8164 7.32422 35.8398 6.44531 34.7656 6.44531C34.3164 6.44531 33.7793 6.60156 33.4277 6.88477C32.9102 7.30469 30.6934 9.42383 28.3398 12.5684C26.543 10.0488 25.7812 6.78711 25.7812 1.95312C25.7812 0.878906 24.707 0 23.6328 0C23.2617 0 22.7148 0.107422 22.4023 0.302734C20.4883 1.51367 16.2305 4.83398 12.4316 9.58984C10.1563 12.4414 8.34961 15.4102 7.06055 18.4277C5.48828 22.1191 4.6875 25.8984 4.6875 29.6582C4.6875 40.8789 13.7988 50 25 50C30.1367 50 34.8145 48.2422 38.5156 44.9121C39.3164 44.1895 39.3848 42.959 38.6621 42.1582C37.9395 41.3574 36.709 41.2891 35.9082 42.0117C32.9395 44.6875 29.1699 46.1035 25.0098 46.1035C15.9668 46.1035 8.60352 38.7305 8.60352 29.668C8.60352 23.6816 10.918 17.7539 15.4883 12.0312C17.7246 9.22852 20.1465 6.97266 22.0215 5.43945C22.373 9.50195 23.5645 13.7109 27.1875 17.1387C27.6074 17.5391 28.1836 17.7246 28.7598 17.666C29.3359 17.5977 29.8535 17.2852 30.166 16.7969C31.3672 14.9707 32.6367 13.3984 33.6816 12.2168C34.4043 14.0332 35.5469 15.6543 36.7383 17.334C38.9746 20.4883 41.2891 24.0039 41.4258 29.3652C41.4258 29.375 41.4258 29.3848 41.4258 29.3945C41.4355 30.9082 41.1523 32.7246 40.7227 34.2285C40.4297 35.2637 41.0352 36.3477 42.0703 36.6406C43.1055 36.9336 44.1895 36.3281 44.4824 35.293C44.9609 33.6133 45.3418 31.3379 45.3418 29.5801C45.3125 22.7051 42.3145 18.4766 39.9121 15.0781Z" fill="#059DFD"/>
<path opacity="0.3" d="M34.1504 39.7948C34.4727 38.8377 34.6485 37.8221 34.6485 36.7577C34.6485 33.0467 32.4317 30.9471 30.4883 29.0917C28.6524 27.3534 27.1973 25.9764 27.1973 23.3592C27.1973 22.5975 26.7578 21.9139 26.0645 21.5917C25.3711 21.2694 24.5606 21.3866 23.9844 21.8749C23.6328 22.1776 15.3516 29.2967 15.3516 36.7577C15.3516 37.6854 15.4883 38.5838 15.7324 39.4334C19.5508 49.3455 31.6797 47.1287 34.1504 39.7948ZM25.0684 42.4608C24.9805 42.4608 24.8926 42.4608 24.8047 42.4608C24.7852 42.4608 24.7656 42.4608 24.7559 42.4608C24.7363 42.4608 24.7168 42.4608 24.6973 42.4608C21.6699 42.3045 19.2578 39.8045 19.2578 36.7577C19.2578 33.4471 21.8652 29.7459 24.1016 27.246C25 29.2674 26.5039 30.6932 27.8027 31.9237C29.6875 33.7108 30.752 34.8143 30.752 36.7577C30.752 39.8827 28.2031 42.4217 25.0684 42.4608Z" fill="#059DFD"/>
</svg>
