<svg width="50" height="50" viewBox="0 0 50 50" fill="none" xmlns="http://www.w3.org/2000/svg">
<path opacity="0.3" d="M10.8496 34.375C11.9283 34.375 12.8027 33.5006 12.8027 32.4219C12.8027 31.3432 11.9283 30.4688 10.8496 30.4688C9.77093 30.4688 8.89648 31.3432 8.89648 32.4219C8.89648 33.5006 9.77093 34.375 10.8496 34.375Z" fill="#059DFD"/>
<path opacity="0.3" d="M16.5137 37.5C17.5924 37.5 18.4668 36.6256 18.4668 35.5469C18.4668 34.4682 17.5924 33.5938 16.5137 33.5938C15.435 33.5938 14.5605 34.4682 14.5605 35.5469C14.5605 36.6256 15.435 37.5 16.5137 37.5Z" fill="#059DFD"/>
<path d="M13.8672 10.7422C13.8672 9.07227 12.5098 7.71484 10.8398 7.71484C9.16992 7.71484 7.8125 9.07227 7.8125 10.7422C7.8125 12.4121 9.16992 13.7695 10.8398 13.7695C12.5098 13.7695 13.8672 12.4121 13.8672 10.7422Z" fill="#059DFD"/>
<path d="M10.5078 26.3672H11.084C11.748 26.3672 12.373 26.0254 12.7344 25.459C13.7305 23.8867 15.0098 22.4902 16.25 21.1328C18.8672 18.2715 21.582 15.3125 21.582 10.7422C21.5723 4.82422 16.7285 0 10.791 0C4.85352 0 0.00976562 4.82422 0 10.752C0 15.3223 2.71484 18.2812 5.33203 21.1426C6.57227 22.4902 7.85156 23.8867 8.84766 25.4687C9.20898 26.0254 9.83398 26.3672 10.5078 26.3672ZM8.21289 18.4961C5.81055 15.8691 3.90625 13.7988 3.90625 10.752C3.90625 6.98242 7.00195 3.90625 10.791 3.90625C14.5801 3.90625 17.666 6.97266 17.6758 10.7422C17.6758 13.7988 15.7715 15.8691 13.3691 18.4961C12.5098 19.4336 11.6309 20.4004 10.791 21.4551C9.96094 20.4004 9.08203 19.4336 8.21289 18.4961Z" fill="#059DFD"/>
<path opacity="0.3" d="M27.8418 43.75C28.9205 43.75 29.7949 42.8756 29.7949 41.7969C29.7949 40.7182 28.9205 39.8438 27.8418 39.8438C26.7631 39.8438 25.8887 40.7182 25.8887 41.7969C25.8887 42.8756 26.7631 43.75 27.8418 43.75Z" fill="#059DFD"/>
<path d="M39.2578 22.8516C37.5879 22.8516 36.2305 24.209 36.2305 25.8789C36.2305 27.5488 37.5879 28.9062 39.2578 28.9062C40.9277 28.9062 42.2852 27.5488 42.2852 25.8789C42.2852 24.209 40.9277 22.8516 39.2578 22.8516Z" fill="#059DFD"/>
<path opacity="0.3" d="M22.2754 40.625C23.3541 40.625 24.2285 39.7506 24.2285 38.6719C24.2285 37.5932 23.3541 36.7188 22.2754 36.7188C21.1967 36.7188 20.3223 37.5932 20.3223 38.6719C20.3223 39.7506 21.1967 40.625 22.2754 40.625Z" fill="#059DFD"/>
<path d="M39.209 15.1367C33.2715 15.1367 28.4277 19.9609 28.418 25.8887C28.418 30.4395 31.1914 33.3691 33.8672 36.2109C35.1562 37.5781 36.4941 39.0039 37.5098 40.5957C37.8809 41.1816 38.5156 41.5039 39.1602 41.5039C39.5215 41.5039 39.8828 41.4062 40.2051 41.2012C41.1133 40.625 41.3867 39.4141 40.8105 38.5059C39.5996 36.5918 38.125 35.0391 36.709 33.5254C34.2578 30.9277 32.3242 28.877 32.3242 25.8789C32.3242 22.1094 35.4199 19.0332 39.209 19.0332C42.998 19.0332 46.084 22.0996 46.0938 25.8691C46.0938 28.3594 44.9316 30.1758 43.0762 32.2949C42.3633 33.1055 42.4414 34.3359 43.252 35.0488C44.0625 35.7617 45.293 35.6836 46.0059 34.873C48.0762 32.5195 50 29.7949 50 25.8691C49.9902 19.9609 45.1465 15.1367 39.209 15.1367Z" fill="#059DFD"/>
<path opacity="0.3" d="M33.6035 46.875C34.6822 46.875 35.5566 46.0006 35.5566 44.9219C35.5566 43.8432 34.6822 42.9688 33.6035 42.9688C32.5248 42.9688 31.6504 43.8432 31.6504 44.9219C31.6504 46.0006 32.5248 46.875 33.6035 46.875Z" fill="#059DFD"/>
<path opacity="0.3" d="M39.2188 50C40.2974 50 41.1719 49.1256 41.1719 48.0469C41.1719 46.9682 40.2974 46.0938 39.2188 46.0938C38.1401 46.0938 37.2656 46.9682 37.2656 48.0469C37.2656 49.1256 38.1401 50 39.2188 50Z" fill="#059DFD"/>
</svg>
