<svg width="50" height="50" viewBox="0 0 50 50" fill="none" xmlns="http://www.w3.org/2000/svg">
<g clip-path="url(#clip0)">
<path d="M26.1719 28.1252C25.6738 28.1252 25.1758 27.9299 24.7949 27.549C24.0332 26.7873 24.0332 25.5471 24.7949 24.7854C29.3555 20.2248 33.0664 15.3908 35.2441 11.1721C37.5 6.78732 37.2363 4.76584 36.7773 4.31662C36.0547 3.59396 32.2461 3.75998 25.0391 8.85763C24.5215 9.21896 23.8672 9.31662 23.2812 9.11154C22.6367 9.55099 21.6992 10.4494 21.3281 11.1819C21.3965 11.758 21.7773 13.5744 24.1113 16.3869C24.8047 17.217 24.6875 18.4475 23.8574 19.1408C23.0273 19.8342 21.7969 19.717 21.1035 18.8869C17.1777 14.1506 17.3633 11.1135 17.4316 10.5569C17.4512 10.4397 17.4707 10.3225 17.5098 10.2053C18.0176 8.67209 19.2773 7.39279 19.9805 6.75803C20.918 5.91818 22.3047 4.94162 23.623 5.00998C23.6621 5.00998 23.7012 5.01974 23.7402 5.01974C26.7773 2.96896 29.6484 1.48459 32.0703 0.722869C36.2402 -0.585725 38.4277 0.459197 39.5312 1.56271C41.0547 3.08615 42.1484 6.29904 38.7109 12.9787C36.3574 17.5393 32.3926 22.7248 27.5488 27.5686C27.168 27.9299 26.6699 28.1252 26.1719 28.1252Z" fill="white"/>
<path d="M27.0703 15.7132C26.4746 15.7132 25.8887 15.4398 25.498 14.9222C23.5937 12.3539 22.3926 9.95152 21.9434 7.77379C21.7187 6.7191 22.4023 5.68394 23.457 5.45934C24.5117 5.24449 25.5469 5.91832 25.7715 6.97301C26.0059 8.08629 26.6894 9.96129 28.6426 12.5882C29.2871 13.4574 29.1016 14.6781 28.2422 15.3226C27.8809 15.5863 27.4707 15.7132 27.0703 15.7132Z" fill="white"/>
<path d="M35.8594 37.8126C35.3613 37.8126 34.8633 37.6173 34.4824 37.2365C33.7207 36.4747 33.7207 35.2345 34.4824 34.4728C43.2227 25.7325 47.1094 18.174 45.7227 12.6271C44.2871 6.88489 37.6562 4.81458 37.5879 4.79505C36.5527 4.48255 35.9766 3.3888 36.2891 2.36341C36.6016 1.33802 37.6953 0.752082 38.7207 1.06458C39.082 1.172 47.5391 3.82825 49.5117 11.6896C51.2793 18.7404 47.1484 27.3439 37.2461 37.2462C36.8652 37.6271 36.3574 37.8126 35.8594 37.8126Z" fill="white"/>
<path d="M14.9609 49.9028C13.8379 49.9028 12.7441 49.7661 11.6797 49.5024C3.82813 47.5395 1.17188 39.0728 1.06446 38.7212C0.751956 37.686 1.33789 36.6021 2.36328 36.2896C3.39844 35.9771 4.48243 36.5532 4.79493 37.5884C4.81446 37.6567 6.94337 44.3267 12.6563 45.7329C18.2031 47.1001 25.752 43.2134 34.4727 34.4927C35.2344 33.731 36.4746 33.731 37.2363 34.4927C37.9981 35.2544 37.9981 36.4946 37.2363 37.2563C28.8281 45.6645 21.3477 49.9028 14.9609 49.9028Z" fill="white"/>
<path d="M5.47851 40.9867C3.56445 40.9867 2.33398 40.3226 1.55273 39.5316C0.449216 38.4281 -0.595706 36.2308 0.722654 32.0414C1.57226 29.3461 3.30078 26.1234 5.71289 22.7152C7.25586 20.5375 9.80468 19.1605 12.5293 19.0336C15.0391 18.9164 17.3633 19.8734 18.9258 21.68C19.6289 22.5004 19.541 23.7308 18.7305 24.4339C17.9102 25.1371 16.6797 25.0492 15.9766 24.2386C14.9219 23.0277 13.4863 22.9007 12.7246 22.9398C11.1914 23.0179 9.76562 23.7796 8.90625 24.9808C3.76953 32.2269 3.60351 36.055 4.32617 36.7777C4.78515 37.2367 6.80664 37.5004 11.1816 35.2445C15.4004 33.0668 20.2344 29.3558 24.7949 24.7953C25.5566 24.0336 26.7969 24.0336 27.5586 24.7953C28.3203 25.557 28.3203 26.7972 27.5586 27.5589C22.7148 32.4027 17.5391 36.3675 12.9687 38.7211C9.71679 40.3812 7.28515 40.9867 5.47851 40.9867Z" fill="white"/>
<path opacity="0.3" d="M11.7383 31.1621C12.7415 31.1621 13.5547 30.3489 13.5547 29.3457C13.5547 28.3425 12.7415 27.5293 11.7383 27.5293C10.7351 27.5293 9.92187 28.3425 9.92187 29.3457C9.92187 30.3489 10.7351 31.1621 11.7383 31.1621Z" fill="white"/>
</g>
<defs>
<clipPath id="clip0">
<rect width="50" height="50" fill="white"/>
</clipPath>
</defs>
</svg>
