<svg width="50" height="50" viewBox="0 0 50 50" fill="none" xmlns="http://www.w3.org/2000/svg">
<g clip-path="url(#clip0)">
<path d="M47.7051 23.3984L31.7578 7.51953L35.9375 3.33984C36.6992 2.57813 36.6992 1.33789 35.9375 0.576172C35.1758 -0.185547 33.9355 -0.185547 33.1738 0.576172L9.61914 24.1113C6.32812 25.0293 3.90625 28.0566 3.90625 31.6406C3.90625 32.7148 4.78516 33.5938 5.85938 33.5938C6.93359 33.5938 7.8125 32.7148 7.8125 31.6406C7.8125 30.127 8.68164 28.8086 9.94141 28.1641L26.4648 44.6289C27.9883 46.1523 29.9902 46.9141 31.9824 46.9141C33.9844 46.9141 35.9863 46.1523 37.5 44.6289L47.6953 34.4531C49.1699 32.9785 49.9805 31.0156 49.9805 28.9258C49.9902 26.8359 49.1797 24.873 47.7051 23.3984ZM44.9414 31.6895L34.7461 41.8652C33.2227 43.3887 30.7422 43.3887 29.2188 41.8652L15.0488 27.7344H36.7188C37.793 27.7344 38.6719 26.8555 38.6719 25.7813C38.6719 24.707 37.793 23.8281 36.7188 23.8281H15.4297L28.9941 10.2734L44.9414 26.1621C45.6836 26.9043 46.084 27.8809 46.084 28.9258C46.084 29.9707 45.6836 30.957 44.9414 31.6895Z" fill="white"/>
<path opacity="0.3" d="M9.29688 38.9941C8.30078 37.5098 7.32422 36.3086 7.27539 36.2598C6.9043 35.8105 6.34766 35.5469 5.76172 35.5469C5.17578 35.5469 4.61914 35.8105 4.24805 36.2598C4.20898 36.3086 3.22266 37.5098 2.22656 38.9941C0.234375 41.9824 0.00976562 43.418 0.00976562 44.2383C0.00976562 47.4121 2.59766 50 5.77148 50C8.94531 50 11.5332 47.4121 11.5332 44.2383C11.5332 43.418 11.2988 41.9824 9.29688 38.9941ZM5.77148 46.0938C4.74609 46.0938 3.91602 45.2637 3.91602 44.2383C3.91602 44.2285 3.96484 43.4277 5.50781 41.1328C5.5957 40.9961 5.68359 40.8691 5.77148 40.7422C5.85938 40.8691 5.94727 40.9961 6.03516 41.1328C7.54883 43.3984 7.61719 44.209 7.62695 44.2383C7.61719 45.2637 6.78711 46.0938 5.77148 46.0938Z" fill="white"/>
</g>
<defs>
<clipPath id="clip0">
<rect width="50" height="50" fill="white"/>
</clipPath>
</defs>
</svg>
