<svg width="50" height="50" viewBox="0 0 50 50" fill="none" xmlns="http://www.w3.org/2000/svg">
<path opacity="0.3" d="M25 22.2852C26.0742 22.2852 26.9531 21.4062 26.9531 20.332V10.8398L30.8691 14.7559C31.6308 15.5176 32.8711 15.5176 33.6328 14.7559C34.3945 13.9941 34.3945 12.7539 33.6328 11.9922L28.457 6.81641C26.5527 4.91211 23.457 4.91211 21.5527 6.81641L16.377 11.9922C15.6152 12.7539 15.6152 13.9941 16.377 14.7559C17.1387 15.5176 18.3789 15.5176 19.1406 14.7559L23.0566 10.8398V20.332C23.0469 21.416 23.9258 22.2852 25 22.2852Z" fill="white"/>
<path d="M41.2109 34.375C42.2852 34.375 43.1641 33.4961 43.1641 32.4219V7.8125C43.1641 3.50586 39.6582 0 35.3516 0H14.6484C10.3418 0 6.83594 3.50586 6.83594 7.8125V42.1875C6.83594 46.4941 10.3418 50 14.6484 50H35.3516C39.6582 50 43.1641 46.4941 43.1641 42.1875C43.1641 41.1133 42.2852 40.2344 41.2109 40.2344C40.1367 40.2344 39.2578 41.1133 39.2578 42.1875C39.2578 44.3457 37.5098 46.0938 35.3516 46.0938H14.6484C12.4902 46.0938 10.7422 44.3457 10.7422 42.1875V7.8125C10.7422 5.6543 12.4902 3.90625 14.6484 3.90625H35.3516C37.5098 3.90625 39.2578 5.6543 39.2578 7.8125V32.4219C39.2578 33.4961 40.1367 34.375 41.2109 34.375Z" fill="white"/>
<path opacity="0.3" d="M16.3672 34.9414C15.6055 35.7031 15.6055 36.9434 16.3672 37.7051L21.543 42.8809C23.4473 44.7852 26.543 44.7852 28.4473 42.8809L33.6231 37.7051C34.3848 36.9434 34.3848 35.7031 33.6231 34.9414C32.8613 34.1797 31.6211 34.1797 30.8594 34.9414L26.9531 38.8574V29.3652C26.9531 28.291 26.0742 27.4121 25 27.4121C24.4629 27.4121 23.9746 27.627 23.6231 27.9883C23.2715 28.3398 23.0469 28.8281 23.0469 29.3652V38.8574L19.1309 34.9414C18.3691 34.1797 17.1289 34.1797 16.3672 34.9414Z" fill="white"/>
</svg>
