<svg width="50" height="50" viewBox="0 0 50 50" fill="none" xmlns="http://www.w3.org/2000/svg">
<g clip-path="url(#clip0)">
<path opacity="0.3" d="M21.9043 17.5293H25.8301L23.2031 24.8047C23.1641 24.8926 23.1445 24.9805 23.1445 25.0488C23.1445 25.3516 23.4082 25.5371 23.75 25.5371C23.9941 25.5371 24.248 25.4395 24.4141 25.2734L33.6328 14.7266C34.4336 13.7988 33.7891 12.3535 32.5586 12.3535H28.0371L31.6113 6.5918H24.6777L20.1758 14.6191C19.4434 15.9277 20.3906 17.5293 21.9043 17.5293Z" fill="white"/>
<path d="M42.1875 12.9395H39.5508C38.4766 12.9395 37.6074 13.8086 37.5977 14.8828C37.5879 15.9668 38.4668 16.8457 39.5508 16.8457H42.1875C44.3457 16.8457 46.0938 18.5938 46.0938 20.752V25.7812C46.0938 26.8359 46.9141 27.7441 47.9785 27.7832C49.0918 27.8223 50 26.9336 50 25.8301V20.752C50 16.4355 46.5039 12.9395 42.1875 12.9395Z" fill="white"/>
<path d="M48.0566 33.6426C46.9824 33.6328 46.1035 34.502 46.0938 35.5664C46.0645 37.7344 44.3555 39.502 42.1875 39.502H11.7188C9.56055 39.502 7.8125 37.7539 7.8125 35.5957V33.0566C7.8125 31.9824 6.93359 31.1035 5.85938 31.1035H3.90625V25.2441H5.85938C6.93359 25.2441 7.8125 24.3652 7.8125 23.291V20.752C7.8125 18.5938 9.56055 16.8457 11.7188 16.8457H14.2285C15.293 16.8457 16.1621 15.9863 16.1816 14.9219C16.2012 13.8281 15.3223 12.9395 14.2285 12.9395H11.7188C7.40234 12.9395 3.90625 16.4355 3.90625 20.752V21.3379H3.34961C1.50391 21.3379 0 22.8418 0 24.6875V31.6602C0 33.5059 1.50391 35.0098 3.34961 35.0098H3.90625V35.5957C3.90625 39.9121 7.40234 43.4082 11.7188 43.4082H42.1875C46.4648 43.4082 49.9512 39.9512 50 35.6934C50.0098 34.5996 49.1504 33.6523 48.0566 33.6426Z" fill="white"/>
</g>
<defs>
<clipPath id="clip0">
<rect width="50" height="50" fill="white"/>
</clipPath>
</defs>
</svg>
