<svg width="50" height="50" viewBox="0 0 50 50" fill="none" xmlns="http://www.w3.org/2000/svg">
<path opacity="0.3" d="M47.0703 10.1562C48.6914 10.1562 50 8.84766 50 7.22656C50 6.07422 48.5156 4.08203 47.6562 3.03711C47.3535 2.66602 46.7871 2.66602 46.4844 3.03711C45.625 4.08203 44.1406 6.07422 44.1406 7.22656C44.1406 8.84766 45.4492 10.1562 47.0703 10.1562Z" fill="white"/>
<path opacity="0.3" d="M38.6719 4.78516C39.7461 4.78516 40.625 3.90625 40.625 2.83203C40.625 2.08984 39.6973 0.878906 39.1211 0.205078C38.8867 -0.0683594 38.4668 -0.0683594 38.2324 0.205078C37.6465 0.878906 36.7188 2.08984 36.7188 2.83203C36.7188 3.90625 37.5977 4.78516 38.6719 4.78516Z" fill="white"/>
<path opacity="0.3" d="M11.3281 4.78516C12.4023 4.78516 13.2812 3.90625 13.2812 2.83203C13.2812 2.08984 12.3535 0.878906 11.7773 0.205078C11.543 -0.0683594 11.123 -0.0683594 10.8887 0.205078C10.3027 0.878906 9.375 2.08984 9.375 2.83203C9.375 3.90625 10.2539 4.78516 11.3281 4.78516Z" fill="white"/>
<path opacity="0.3" d="M2.92969 10.1562C4.55078 10.1562 5.85938 8.84766 5.85938 7.22656C5.85938 6.07422 4.375 4.08203 3.51562 3.03711C3.21289 2.66602 2.64648 2.66602 2.34375 3.03711C1.48438 4.08203 0 6.07422 0 7.22656C0 8.84766 1.30859 10.1562 2.92969 10.1562Z" fill="white"/>
<path d="M46.9434 20.957C45.8984 21.2109 45.2539 22.2656 45.5078 23.3203C45.6836 24.0625 45.8301 24.8145 45.9277 25.5762C44.5605 25.2734 42.793 25 40.8203 25C39.0039 25 36.8359 25.5469 35.1758 26.0645C34.707 17.334 32.0605 11.6113 29.7461 8.22266C34.6777 9.28711 39.0234 12.002 42.0508 16.0254C42.6953 16.8848 43.9258 17.0605 44.7852 16.4062C45.6445 15.752 45.8203 14.5312 45.166 13.6719C42.9004 10.6543 39.8828 8.16406 36.4551 6.46484C33.5254 5.00977 30.2637 4.13086 26.9336 3.88672V1.95312C26.9336 0.878906 26.0547 0 24.9805 0C23.9062 0 23.0273 0.878906 23.0273 1.95312V3.87695C17.0703 4.31641 11.5527 6.73828 7.32422 10.8105C2.60742 15.3809 0 21.5723 0 28.2227C0 28.877 0.332031 29.4922 0.878906 29.8535C1.42578 30.2148 2.11914 30.2734 2.72461 30.0098C2.75391 30 5.38086 28.8965 8.97461 28.8965C11.1621 28.8965 14.6973 30.1074 15.9277 30.5957C15.9375 30.5957 15.9473 30.6055 15.957 30.6055C15.9766 30.6152 15.9863 30.6152 16.0059 30.625C16.0449 30.6348 16.084 30.6543 16.123 30.6641C16.1523 30.6738 16.1816 30.6738 16.2109 30.6836C16.2402 30.6934 16.2695 30.7031 16.3086 30.7031C16.3574 30.7129 16.416 30.7227 16.4648 30.7324C16.4746 30.7324 16.4844 30.7324 16.4844 30.7324C16.5527 30.7422 16.6211 30.7422 16.6797 30.7422C16.8066 30.7422 16.9434 30.7324 17.0703 30.7031C17.1289 30.6934 17.1973 30.6738 17.2559 30.6543C17.3145 30.6348 17.3633 30.6152 17.4219 30.5957C17.4316 30.5957 17.4414 30.5859 17.4512 30.5859C17.4902 30.5664 17.5293 30.5469 17.5684 30.5273C17.5977 30.5176 19.873 29.375 23.0273 29.0039V44.1406C23.0273 45.2148 22.1484 46.0938 21.0742 46.0938C20.0195 46.0938 19.1211 45.1758 19.1211 44.0918C19.1211 43.0176 18.2422 42.1387 17.168 42.1387C16.0938 42.1387 15.2148 43.0176 15.2148 44.0918C15.2148 47.3438 17.8418 50 21.0742 50C24.3066 50 26.9336 47.373 26.9336 44.1406V29.0234C30.0879 29.3945 32.3633 30.5371 32.3926 30.5469C32.4316 30.5664 32.4707 30.5859 32.5098 30.5957C32.5293 30.6055 32.5391 30.6055 32.5586 30.6152C32.6074 30.6348 32.6465 30.6543 32.6953 30.6641C32.7148 30.6641 32.7246 30.6738 32.7441 30.6738C32.7832 30.6836 32.832 30.6934 32.8711 30.7031C32.8906 30.7031 32.9004 30.7129 32.9199 30.7129C32.9688 30.7227 33.0176 30.7324 33.0664 30.7324C33.0762 30.7324 33.0859 30.7324 33.1055 30.7324C33.1641 30.7422 33.2129 30.7422 33.2715 30.7422C33.2812 30.7422 33.2812 30.7422 33.291 30.7422H33.3008C33.3594 30.7422 33.4082 30.7422 33.4668 30.7324C33.4766 30.7324 33.4961 30.7324 33.5059 30.7324C33.5547 30.7227 33.6035 30.7227 33.6523 30.7129C33.6719 30.7129 33.6816 30.7031 33.7012 30.7031C33.75 30.6934 33.7988 30.6836 33.8477 30.6641C33.8672 30.6543 33.877 30.6543 33.8965 30.6445C33.9453 30.625 33.9941 30.6152 34.0332 30.5957C34.043 30.5957 34.043 30.5957 34.0527 30.5859C35.2051 30.1074 38.623 28.8867 40.8105 28.8867C44.4434 28.8867 47.2754 30 47.3047 30.0098C47.9102 30.2539 48.5938 30.1855 49.1309 29.8242C49.668 29.4629 49.9902 28.8574 49.9902 28.2031C49.9902 26.2207 49.7559 24.2578 49.2969 22.373C49.0527 21.3379 47.998 20.7031 46.9434 20.957ZM14.8145 26.084C13.1055 25.5566 10.8496 25 8.98438 25C7.07031 25 5.39062 25.2539 4.07227 25.5469C5.18555 16.8945 11.6504 10.0781 20.2441 8.22266C17.9297 11.6113 15.2832 17.3438 14.8145 26.084ZM25 25C22.5488 25 20.3613 25.459 18.7402 25.9473C19.1504 19.3652 20.918 14.8535 22.4219 12.1289C23.3594 10.4492 24.2969 9.23828 25 8.45703C25.6738 9.19922 26.5527 10.332 27.4512 11.9043C29.0137 14.6582 30.8398 19.2188 31.2598 25.9375C29.6387 25.459 27.4512 25 25 25Z" fill="white"/>
</svg>
