<svg width="50" height="50" viewBox="0 0 50 50" fill="none" xmlns="http://www.w3.org/2000/svg">
<g clip-path="url(#clip0)">
<path d="M38.8 20.0002C35.1 16.3002 30.1 14.2002 24.9 14.2002C19.7 14.2002 14.7 16.3002 11 20.0002C7.8 23.2002 5.9 27.2002 5.4 31.6002C5.3 32.6002 5.9 33.6002 6.8 33.8002C8 34.1002 9.1 33.3002 9.2 32.1002C10.1 24.2002 16.8 18.1002 24.9 18.1002C33.6 18.1002 40.7 25.2002 40.7 33.9002C40.7 38.6002 38.5 43.1002 34.9 46.1002H15C13 44.4002 11.4 42.3002 10.4 39.9002C10.1 39.1002 9.3 38.7002 8.5 38.7002C7.2 38.8002 6.3 40.1002 6.8 41.4002C7 41.9002 7.2 42.4002 7.5 42.9002C8.9 45.6002 10.8 47.9002 13.2 49.7002C13.5 49.9002 13.9 50.1002 14.3 50.1002H35.6C36 50.1002 36.4 50.0002 36.8 49.7002C39.2 47.9002 41.1 45.6002 42.5 42.9002C43.9 40.1002 44.7 37.1002 44.7 33.9002C44.6 28.6002 42.6 23.7002 38.8 20.0002Z" fill="white"/>
<path d="M37.3 23.2C36.2 23.2 35.3 22.3 35.3 21.2V14.3C35.3 8.5 30.6 3.8 24.8 3.8C19 3.8 14.5 8.6 14.5 14.4V21.3C14.5 22.4 13.6 23.3 12.5 23.3C11.4 23.3 10.5 22.4 10.5 21.3V14.4C10.6 6.4 17 0 24.9 0C32.8 0 39.3 6.4 39.3 14.4V21.3C39.3 22.4 38.4 23.2 37.3 23.2Z" fill="white"/>
<path opacity="0.3" d="M35 32.5999C34.2 32.5999 33.4 32.0999 33.1 31.2C32.5 29.4 31.2 27.5999 29.7 26.5999C28.8 25.9999 28.5 24.7999 29.1 23.8999C29.7 22.9999 30.9 22.6999 31.8 23.2999C34.1 24.7999 36 27.2999 36.9 29.9999C37.2 30.9999 36.6 32.1 35.6 32.4C35.4 32.6 35.2 32.5999 35 32.5999Z" fill="white"/>
</g>
<defs>
<clipPath id="clip0">
<rect width="50" height="50" fill="white"/>
</clipPath>
</defs>
</svg>
