<svg width="50" height="50" viewBox="0 0 50 50" fill="none" xmlns="http://www.w3.org/2000/svg">
<path d="M8.7207 27.7929C7.89063 26.9238 7.09961 26.0058 6.39648 25.0293C4.31641 22.1582 3.47656 18.9941 4.23828 15.4883C4.98047 12.0898 6.86523 9.61912 10.2051 8.39842C11.6797 7.86131 13.2227 7.77342 14.7754 7.92967C17.5098 8.2031 19.7656 9.31639 21.3184 11.6601C22.2656 13.0859 22.7832 14.6582 23.0273 16.3379C23.1836 17.4121 23.9551 18.0859 25.0293 18.0859C26.0645 18.0859 26.8555 17.3926 26.9922 16.3476C27.1191 15.4199 27.3535 14.5312 27.6855 13.6621C28.4473 11.6894 29.6289 10.0683 31.5137 9.01365C32.1191 8.68162 32.7637 8.47654 33.3984 8.22264C34.2578 7.87107 34.6777 7.12889 34.6094 6.15232C34.5508 5.36131 33.9648 4.69725 33.1445 4.44334C32.5879 4.27732 32.0898 4.43357 31.5723 4.60935C28.9258 5.52732 26.8359 7.15818 25.293 9.49217C25 9.94139 24.9805 9.94139 24.6777 9.47264C23.4375 7.55857 21.7773 6.11326 19.7168 5.1367C17.1875 3.94529 14.502 3.62303 11.7676 3.96482C6.68945 4.60935 3.13477 7.3242 1.08398 12.0117C0.478516 13.3789 0.224609 14.834 0 16.2988C0 17.4414 0 18.5742 0 19.7168C0.185547 20.6054 0.3125 21.5137 0.595703 22.3828C1.54297 25.3418 3.26172 27.8222 5.37109 30.0683C7.74414 32.5879 10.4687 34.707 13.2227 36.7871C16.8359 39.5215 20.6152 42.0703 23.6133 45.5469C24.3457 46.3965 25.6152 46.3476 26.4062 45.5469C26.8555 45.0976 27.2559 44.6094 27.6953 44.1504C28.7598 43.0469 29.9609 42.0996 31.123 41.1133C32.0508 40.3222 32.1582 39.1308 31.4355 38.2519C30.7227 37.3828 29.5215 37.2851 28.5645 38.0469C27.4609 38.9258 26.3672 39.834 25.3516 40.8301C25.1074 41.0742 24.9414 41.1133 24.6777 40.8496C22.9492 39.1406 21.0449 37.6465 19.1113 36.1816C16.9434 34.541 14.7363 32.959 12.6172 31.2597C12.1191 30.8398 9.01367 28.0957 8.7207 27.7929Z" fill="#059DFD"/>
<path opacity="0.3" d="M49.8633 7.44141C49.2871 5.44922 47.4121 3.90625 45.498 3.87695C43.7891 3.85742 42.0801 3.87695 40.3711 3.86719C40.0391 3.86719 39.7266 3.94531 39.4433 4.11133C38.6426 4.57031 38.2617 5.48828 38.4961 6.37695C38.7207 7.23633 39.4922 7.83203 40.4004 7.8418C41.2012 7.85156 42.0117 7.8418 42.8223 7.8418C42.8027 8.03711 42.6953 8.0957 42.6172 8.17383C36.7969 13.9941 30.9668 19.8145 25.1367 25.625C24.4824 26.2793 24.0527 26.2793 23.3887 25.625C22.6367 24.8828 21.8652 24.1504 21.1426 23.3789C19.1211 21.2012 15.7617 21.3867 13.8769 23.3984C12.7637 24.5801 10.0488 27.2559 8.89648 28.3984C9.82421 29.3652 10.4492 30.6055 11.4355 31.5137C12.5488 30.4004 15.5566 27.3828 16.6797 26.2695C17.2851 25.6641 17.7539 25.6641 18.3594 26.2598C19.1211 27.0117 19.8828 27.7734 20.6348 28.5352C22.7148 30.6348 25.7324 30.6641 27.8223 28.6035C29.3164 27.1289 30.8105 25.6543 32.2949 24.1699C36.709 19.7656 41.1133 15.3613 45.5273 10.957C45.6738 10.8105 45.791 10.6348 46.0547 10.5469C46.0547 11.582 46.0449 12.5684 46.0547 13.5547C46.0742 14.5996 46.9336 15.4199 47.9687 15.4492C48.9941 15.4785 49.5898 14.9121 50 14.0527C50 12.002 50 9.95117 50 7.90039C49.9512 7.74414 49.9121 7.59766 49.8633 7.44141Z" fill="#059DFD"/>
<path d="M37.6856 35.5762C36.875 35.5762 36.1621 35.1074 35.8496 34.3555C35.5371 33.6035 35.6836 32.7148 36.3184 32.1582C37.1777 31.3965 38.1055 30.6934 38.9844 29.9414C41.1328 28.0762 43.125 26.0742 44.5313 23.5645C45.0098 22.7051 45.3906 21.8164 45.6738 20.8789C46.0352 19.6777 47.0606 19.043 48.1641 19.3457C49.2871 19.6484 49.8731 20.752 49.5313 21.9727C48.8086 24.5801 47.4219 26.8164 45.7031 28.877C43.7207 31.2598 41.377 33.2422 38.9551 35.1465C38.5352 35.4785 38.2031 35.5762 37.6856 35.5762Z" fill="#059DFD"/>
</svg>
