<svg width="38" height="50" viewBox="0 0 38 50" fill="none" xmlns="http://www.w3.org/2000/svg">
<path d="M34.684 15.665V12.8919C34.684 9.816 32.9068 7.16002 30.3192 5.88086C29.4404 5.29498 28.9229 4.33805 28.9229 3.2737V1.94571C28.8057 -0.671209 25.1146 -0.641915 25.017 1.99453V3.2737C25.017 3.88887 25.0951 4.49428 25.2514 5.08016H9.50099C9.67676 4.45522 9.7744 3.80099 9.7744 3.12723V1.95548C9.65723 -0.661445 5.96619 -0.632151 5.86855 2.0043V3.12723C5.86855 5.08016 4.12068 5.96874 4.01327 6.07615C1.62093 7.40414 0 9.96247 0 12.8919V37.0105C0 39.9985 1.68928 42.6056 4.1695 43.9239C4.22809 43.9727 5.86855 44.7343 5.86855 46.7263V48.0543C5.98572 50.6712 9.67676 50.6419 9.7744 48.0055V46.7263C9.7744 46.0721 9.68652 45.4374 9.52052 44.8222H25.2709C25.1049 45.4276 25.017 46.0721 25.017 46.7263V48.0543C25.1342 50.6712 28.8252 50.6419 28.9229 48.0055V46.7263C28.9229 45.0175 30.6805 43.875 30.7879 43.7774C33.1021 42.4299 34.6645 39.9399 34.684 37.0886C34.6938 36.0047 33.8247 35.0673 32.7408 35.0576C31.6667 35.0478 30.7879 35.9169 30.7781 36.9812C30.7488 39.1489 29.04 40.9163 26.8723 40.9163H7.82147C5.66349 40.9163 3.91562 39.1685 3.91562 37.0105V12.8919C3.91562 10.7339 5.66349 8.98601 7.82147 8.98601H26.8723C29.0303 8.98601 30.7781 10.7339 30.7781 12.8919V26.2694C30.8953 28.8863 34.5863 28.857 34.684 26.2206V25.0488C36.4514 24.7656 37.8087 23.2326 37.8087 21.3871V19.3365C37.8087 17.4812 36.4514 15.9482 34.684 15.665Z" fill="#059DFD"/>
<path opacity="0.3" d="M15.3402 14.8452V25.0004C15.3402 25.5277 15.555 26.0257 15.9261 26.3968L21.199 31.572C21.9704 32.3239 23.2007 32.3141 23.9624 31.5427C24.7142 30.7713 24.7045 29.5312 23.9331 28.7793L19.2461 24.1802V14.8452C19.2461 13.7613 18.3672 12.8923 17.2931 12.8923C16.219 12.8923 15.3402 13.7613 15.3402 14.8452Z" fill="#059DFD"/>
</svg>
