<svg width="50" height="46" viewBox="0 0 50 46" fill="none" xmlns="http://www.w3.org/2000/svg">
<path d="M31.8164 34.0527L31.7676 34.0918C29.2871 36.2695 26.9141 38.3496 24.9902 40.3906C23.0762 38.3496 20.7031 36.2695 18.2129 34.0918C16.8945 32.9297 15.5274 31.7285 14.1992 30.5176C13.4082 29.7852 12.168 29.8438 11.4356 30.6348C10.7031 31.4258 10.7617 32.666 11.5527 33.3984C12.9102 34.6484 14.2969 35.8594 15.6348 37.041C18.6914 39.7266 21.582 42.2559 23.4668 44.5899C23.4668 44.5899 23.4668 44.5996 23.4766 44.5996C23.4863 44.6094 23.4961 44.6191 23.5059 44.6289C23.5449 44.668 23.5742 44.707 23.6133 44.7461C23.6133 44.7461 23.6133 44.7461 23.6231 44.7559C23.6719 44.8047 23.7207 44.8438 23.7695 44.8828C23.8086 44.9219 23.8574 44.9512 23.9063 44.9805C23.9063 44.9805 23.916 44.9805 23.916 44.9902C23.9551 45.0195 24.0039 45.0488 24.0527 45.0684C24.0527 45.0684 24.0625 45.0684 24.0625 45.0781C24.1016 45.0977 24.1504 45.127 24.1992 45.1465C24.209 45.1563 24.2188 45.1563 24.2285 45.1563C24.2676 45.1758 24.3066 45.1856 24.3359 45.1953C24.3457 45.1953 24.3555 45.2051 24.3652 45.2051C24.4043 45.2149 24.4531 45.2344 24.4922 45.2441C24.5117 45.2441 24.5215 45.2539 24.541 45.2539C24.5801 45.2637 24.6094 45.2734 24.6484 45.2734C24.6582 45.2734 24.6777 45.2832 24.6875 45.2832C24.7266 45.293 24.7656 45.293 24.8145 45.3027C24.834 45.3027 24.8438 45.3027 24.8633 45.3027C24.9121 45.3027 24.9512 45.3125 25 45.3125C25 45.3125 25 45.3125 25.0098 45.3125C25.0586 45.3125 25.0977 45.3125 25.1465 45.3027C25.166 45.3027 25.1758 45.3027 25.1953 45.3027C25.2344 45.3027 25.2734 45.293 25.3223 45.2832C25.332 45.2832 25.3516 45.2734 25.3613 45.2734C25.4004 45.2637 25.4297 45.2637 25.4688 45.2539C25.4883 45.2539 25.4981 45.2441 25.5176 45.2441C25.5566 45.2344 25.6055 45.2246 25.6445 45.2051C25.6543 45.2051 25.6641 45.1953 25.6738 45.1953C25.7129 45.1856 25.752 45.166 25.7813 45.1563C25.791 45.1465 25.8008 45.1465 25.8203 45.1367C25.8691 45.1172 25.9082 45.0977 25.957 45.0684C25.957 45.0684 25.9668 45.0684 25.9668 45.0586C26.0156 45.0293 26.0547 45.0098 26.0938 44.9805C26.0938 44.9805 26.1035 44.9805 26.1035 44.9707C26.1524 44.9414 26.1914 44.9121 26.2402 44.8731C26.2891 44.834 26.3379 44.7949 26.3867 44.7461C26.3867 44.7461 26.3867 44.7461 26.3965 44.7363C26.4356 44.6973 26.4746 44.6582 26.5039 44.6191C26.5137 44.6094 26.5234 44.5996 26.5332 44.5899C26.5332 44.5899 26.5332 44.5801 26.543 44.5801C28.418 42.2461 31.3086 39.707 34.3652 37.0313L34.4141 36.9922C35.2246 36.2793 35.3027 35.0488 34.5899 34.2383C33.8672 33.4277 32.627 33.3399 31.8164 34.0527Z" fill="#059DFD"/>
<path d="M46.0645 3.85742C43.6035 1.36719 40.2148 0 36.5234 0C30.0684 0 26.7285 3.32031 25.0586 6.11328C25.0391 6.15234 25.0195 6.18164 25 6.2207C24.9805 6.18164 24.9609 6.15234 24.9414 6.11328C23.2715 3.32031 19.9316 0 13.4766 0C9.78516 0 6.39648 1.36719 3.93555 3.85742C1.35742 6.46484 0 10.0391 0 14.1895C0 17.0215 0.800781 19.8535 2.45117 22.7539H7.07031C4.94141 19.7266 3.90625 16.9141 3.90625 14.1895C3.90625 8.13477 7.8418 3.90625 13.4766 3.90625C17.1387 3.90625 19.8438 5.2832 21.5137 8.00781C22.8418 10.166 23.0469 12.4121 23.0469 12.4219C23.125 13.4375 23.9746 14.2285 24.9902 14.2285C26.0059 14.2285 26.8555 13.4473 26.9336 12.4316C26.9336 12.4121 27.1387 10.166 28.4668 8.00781C30.1367 5.29297 32.8418 3.90625 36.5039 3.90625C42.1387 3.90625 46.0742 8.13477 46.0742 14.1895C46.0742 18.3008 43.7207 22.6074 38.6719 27.7344C37.9102 28.5059 37.9199 29.7363 38.6914 30.498C39.0723 30.8691 39.5703 31.0645 40.0586 31.0645C40.5664 31.0645 41.0645 30.8691 41.4551 30.4785C45.127 26.7578 50 21.0254 50 14.1895C50 10.0391 48.6426 6.46484 46.0645 3.85742Z" fill="#059DFD"/>
<path opacity="0.3" d="M1.95312 22.7539C0.878906 22.7539 0 23.6328 0 24.707C0 25.7812 0.878906 26.6601 1.95312 26.6601H12.9199C13.6621 26.6601 14.3457 26.2402 14.6777 25.5664L16.6211 21.6015L20.5859 30.4785C20.8887 31.1621 21.5723 31.6211 22.3242 31.6308C22.3438 31.6308 22.3535 31.6308 22.373 31.6308C23.1055 31.6308 23.7793 31.2207 24.1113 30.5566L26.7969 25.2441L26.9824 25.6054C27.3242 26.25 27.9883 26.6504 28.7109 26.6504H34.2773C35.3516 26.6504 36.2305 25.7715 36.2305 24.6972C36.2305 23.623 35.3516 22.7441 34.2773 22.7441H29.8926L28.4863 20.0781C28.1445 19.4336 27.4805 19.0332 26.7578 19.0332H26.7383C26.0059 19.0429 25.3418 19.4531 25.0098 20.1074L22.4707 25.1367L18.4766 16.1914C18.1641 15.498 17.4902 15.0488 16.7285 15.039C15.9766 15.0195 15.2734 15.4492 14.9414 16.1328L11.709 22.7539H7.07031H2.45117H1.95312Z" fill="#059DFD"/>
</svg>
