<svg width="50" height="50" viewBox="0 0 50 50" fill="none" xmlns="http://www.w3.org/2000/svg">
<path opacity="0.3" d="M25 11.7188C28.2324 11.7188 30.8594 9.0918 30.8594 5.85938C30.8594 2.62695 28.2324 0 25 0C21.7676 0 19.1406 2.62695 19.1406 5.85938C19.1406 9.0918 21.7676 11.7188 25 11.7188ZM25 3.90625C26.0742 3.90625 26.9531 4.78516 26.9531 5.85938C26.9531 6.93359 26.0742 7.8125 25 7.8125C23.9258 7.8125 23.0469 6.93359 23.0469 5.85938C23.0469 4.78516 23.9258 3.90625 25 3.90625Z" fill="#059DFD"/>
<path d="M48.0469 30.957H45.9961V25.1953C45.9961 24.1211 45.1172 23.2422 44.043 23.2422C42.9688 23.2422 42.0898 24.1211 42.0898 25.1953V30.957H38.6719C38.6621 30.752 38.623 30.5566 38.5449 30.3516L33.5547 17.334C32.6953 15.0879 30.498 13.5742 28.0859 13.5742H21.8555C19.4336 13.5742 17.2266 15.0977 16.377 17.3633L11.4746 30.3613C11.3965 30.5566 11.3574 30.752 11.3477 30.957H7.91016V25.1953C7.91016 24.1211 7.03125 23.2422 5.95703 23.2422C4.88281 23.2422 4.00391 24.1211 4.00391 25.1953V30.957H1.95312C0.878906 30.957 0 31.8359 0 32.9102C0 33.9844 0.878906 34.8633 1.95312 34.8633H4.00391V40.7227C4.00391 41.7969 4.88281 42.6758 5.95703 42.6758C7.03125 42.6758 7.91016 41.7969 7.91016 40.7227V34.8633H42.0898V40.7227C42.0898 41.7969 42.9688 42.6758 44.043 42.6758C45.1172 42.6758 45.9961 41.7969 45.9961 40.7227V34.8633H48.0469C49.1211 34.8633 50 33.9844 50 32.9102C50 31.8359 49.1211 30.957 48.0469 30.957ZM19.1406 30.957H15.4102L19.1406 21.0547V30.957ZM26.9531 30.957H23.0469V17.4805H26.9531V30.957ZM30.8594 30.957V21.2305L34.5898 30.957H30.8594Z" fill="#059DFD"/>
<path d="M21.0938 37.793C20.0195 37.793 19.1406 38.6719 19.1406 39.7461V48.0469C19.1406 49.1211 20.0195 50 21.0938 50C22.168 50 23.0469 49.1211 23.0469 48.0469V39.7461C23.0469 38.6719 22.168 37.793 21.0938 37.793Z" fill="#059DFD"/>
<path d="M28.9062 37.793C27.832 37.793 26.9531 38.6719 26.9531 39.7461V48.0469C26.9531 49.1211 27.832 50 28.9062 50C29.9805 50 30.8594 49.1211 30.8594 48.0469V39.7461C30.8594 38.6719 29.9805 37.793 28.9062 37.793Z" fill="#059DFD"/>
</svg>
