<svg width="50" height="50" viewBox="0 0 50 50" fill="none" xmlns="http://www.w3.org/2000/svg">
<path d="M23.1505 49.9708C22.2428 49.5511 21.6865 48.9069 21.7548 47.8529C21.7841 47.3551 22.0086 46.955 22.3307 46.5938C24.185 44.4564 26.0394 42.319 27.8938 40.1816C28.2452 39.7717 28.6063 39.3813 28.9479 38.9616C29.348 38.4638 29.2992 37.927 28.821 37.4878C26.2151 35.1162 23.6092 32.725 20.9838 30.3729C18.6609 28.294 18.3681 24.5364 20.4275 22.1843C22.8089 19.4711 25.2294 16.7871 27.6303 14.1031C28.2256 13.4394 28.821 12.766 29.4261 12.1121C29.6311 11.8876 29.6799 11.7315 29.4261 11.5167C28.3525 10.5895 27.3082 9.64283 26.2346 8.71564C25.7271 8.2862 25.2977 8.34476 24.7902 8.89132C23.1407 10.6676 21.5011 12.4439 19.8614 14.23C19.471 14.6497 19.0221 14.9425 18.4365 14.9815C17.5385 15.0401 16.8749 14.6497 16.4942 13.8689C16.1234 13.0978 16.2112 12.3366 16.787 11.6827C17.724 10.6286 18.6902 9.59403 19.6467 8.54972C20.3494 7.77869 21.0619 7.01741 21.7646 6.25614C23.863 3.96256 26.8202 3.83568 29.1333 5.89503C32.1882 8.60828 35.2625 11.2923 38.3271 13.9762C39.7423 15.2157 40.4938 16.748 40.4841 18.6415C40.4743 20.5446 40.4743 22.4478 40.4743 24.351C40.4743 25.4246 40.7964 25.7369 41.8798 25.7369C43.8122 25.7369 45.7544 25.776 47.6869 25.7272C48.7995 25.6979 49.5608 26.1273 50 27.1423C50 27.5327 50 27.9231 50 28.3135C49.551 29.3188 48.7995 29.758 47.6771 29.7287C45.569 29.6799 43.4511 29.719 41.3332 29.7092C41.0697 29.7092 40.8062 29.6994 40.5622 29.6506C38.0831 29.1626 36.502 27.2497 36.4923 24.7219C36.4923 23.8337 36.4923 22.9456 36.4923 22.0574C36.4435 22.0282 36.4044 22.0086 36.3556 21.9794C36.3068 22.0672 36.2776 22.1648 36.219 22.2331C33.5936 25.1708 30.9779 28.0988 28.3428 31.0268C28.0988 31.2903 28.1183 31.466 28.3818 31.7002C29.4749 32.6762 30.568 33.6424 31.6221 34.6575C33.6912 36.629 33.7888 39.5472 31.9051 41.7041C29.8263 44.0758 27.7669 46.467 25.6978 48.8484C25.2977 49.3071 24.8975 49.7463 24.3217 49.9903C23.9313 49.9708 23.5409 49.9708 23.1505 49.9708ZM23.0724 25.9321C23.0627 26.5079 23.2481 26.9764 23.6482 27.3571C23.9898 27.6791 24.3705 27.9719 24.6828 28.3233C24.9854 28.6551 25.161 28.5966 25.4343 28.2843C27.5327 25.9126 29.6506 23.5507 31.7587 21.1888C32.9299 19.881 34.0913 18.5634 35.2625 17.2653C35.4968 17.0116 35.5261 16.8456 35.2235 16.6016C34.4817 15.9868 33.779 15.3426 33.0666 14.6985C32.8421 14.5033 32.6957 14.474 32.4712 14.718C29.5237 18.0266 26.5567 21.3254 23.5994 24.634C23.2579 25.0049 23.0431 25.4246 23.0724 25.9321Z" fill="#059DFD"/>
<path opacity="0.3" d="M43.7439 0C45.325 0.351357 46.6719 1.09311 47.5991 2.4595C48.8971 4.3822 49.0826 6.4513 48.0285 8.5204C46.9744 10.5797 45.2274 11.7021 42.8948 11.7412C39.8106 11.7997 37.3023 9.62327 36.912 6.61722C36.5118 3.60141 38.454 0.829592 41.4698 0.0878392C41.5772 0.0585594 41.6845 0.0292797 41.8017 0C42.4458 0 43.09 0 43.7439 0ZM44.6613 5.84618C44.6516 4.81163 43.7634 3.93324 42.7581 3.943C41.7431 3.95276 40.855 4.85067 40.8647 5.85594C40.8745 6.87097 41.7626 7.74937 42.7777 7.73961C43.822 7.73961 44.6711 6.88073 44.6613 5.84618Z" fill="#059DFD"/>
<path d="M0.0195198 31.7197C0.175678 31.4757 0.312317 31.2024 0.497755 30.9877C1.24927 30.1581 2.39118 30.0898 3.29885 30.851C4.71404 32.0417 6.11946 33.2617 7.52489 34.472C8.54968 35.3504 9.56471 36.2385 10.5895 37.1267C11.2337 37.683 11.6924 37.6439 12.2682 37.0291C13.5858 35.6334 14.9131 34.2475 16.2502 32.8713C17.0408 32.071 18.212 32.0515 19.0123 32.7835C19.8029 33.5057 19.9395 34.716 19.2173 35.5065C17.7142 37.1755 16.2014 38.8346 14.552 40.3572C12.844 41.9383 10.0722 41.9188 8.2276 40.3767C6.5489 38.9713 4.88971 37.5171 3.23053 36.0824C2.44974 35.4187 1.68846 34.7355 0.897911 34.0816C0.497755 33.7497 0.185438 33.3691 0 32.8909C0.0195198 32.5005 0.0195198 32.1101 0.0195198 31.7197Z" fill="#059DFD"/>
</svg>
