<svg width="50" height="50" viewBox="0 0 50 50" fill="none" xmlns="http://www.w3.org/2000/svg">
<path d="M26.0059 46.1328C25.5566 45.3125 24.5996 44.9219 23.7109 45.2148C22.2461 45.6934 20.6836 45.957 19.0625 45.957H19.0234C10.7617 45.957 4.04297 39.2383 4.04297 30.9766C4.04297 21.8945 15.3223 8.92578 19.0234 4.92187C19.0332 4.93164 19.0332 4.93164 19.043 4.94141C19.0527 4.93164 19.0527 4.93164 19.0625 4.92187C21.0938 7.11914 25.4102 12.0215 28.8867 17.5C29.2676 18.1055 29.9512 18.457 30.6641 18.418C30.6738 18.418 30.6934 18.418 30.7031 18.418C32.1973 18.3203 33.0469 16.6699 32.2461 15.4004C31.3965 14.0625 30.459 12.6855 29.4336 11.2793C25.2246 5.51758 20.9277 1.15234 20.4492 0.683594C20.0879 0.322266 19.5801 0.117188 19.0527 0.117188H19.0137C18.4863 0.117188 17.9785 0.322266 17.6172 0.683594C17.1387 1.16211 12.8418 5.51758 8.63281 11.2793C2.96875 19.0332 0.0976562 25.6738 0.0976562 30.9766C0.0976562 41.416 8.58398 49.9023 19.0234 49.9023H19.0625C21.123 49.9023 23.1152 49.5703 24.9805 48.9551C26.123 48.5742 26.6211 47.2461 26.0449 46.1816C26.0254 46.1719 26.0156 46.1523 26.0059 46.1328Z" fill="#059DFD"/>
<path opacity="0.3" d="M30.5762 22.8418C26.3086 22.8418 22.8418 27.1777 22.8418 32.5C22.8418 37.8223 26.3086 42.1582 30.5762 42.1582C34.8438 42.1582 38.3105 37.8223 38.3105 32.5C38.3105 27.1777 34.8438 22.8418 30.5762 22.8418ZM30.5762 38.3105C28.4766 38.3105 26.709 35.6543 26.709 32.5098C26.709 29.3652 28.4766 26.709 30.5762 26.709C32.6758 26.709 34.4434 29.3652 34.4434 32.5098C34.4434 35.6543 32.6758 38.3105 30.5762 38.3105ZM49.9023 40.2441C49.9023 37.0508 47.3047 34.4434 44.1016 34.4434C40.8984 34.4434 38.3008 37.041 38.3008 40.2441C38.3008 41.3086 39.1699 42.1777 40.2344 42.1777C41.2988 42.1777 42.168 41.3086 42.168 40.2441C42.168 39.1797 43.0371 38.3105 44.1016 38.3105C45.166 38.3105 46.0352 39.1797 46.0352 40.2441C46.0352 41.9824 42.168 44.8438 39.375 46.25C38.5742 46.6504 38.1543 47.5488 38.3594 48.4277C38.5645 49.2969 39.3457 49.9121 40.2344 49.9121H47.9688C49.0332 49.9121 49.9023 49.043 49.9023 47.9785C49.9023 46.9141 49.0332 46.0449 47.9688 46.0449H46.5918C48.3887 44.4336 49.9023 42.4316 49.9023 40.2441Z" fill="#059DFD"/>
</svg>
