<svg width="50" height="50" viewBox="0 0 50 50" fill="none" xmlns="http://www.w3.org/2000/svg">
<path opacity="0.3" d="M48.0469 36.2305H45.625C44.7168 32.9102 41.6895 30.4688 38.0859 30.4688H36.7188C35.6445 30.4688 34.7656 31.3477 34.7656 32.4219C34.7656 33.4961 35.6445 34.375 36.7188 34.375H38.0859C40.2441 34.375 41.9922 36.123 41.9922 38.2812C41.9922 40.4395 40.2441 42.1875 38.0859 42.1875H11.9141C9.75586 42.1875 8.00781 40.4395 8.00781 38.2812C8.00781 36.123 9.75586 34.375 11.9141 34.375H13.2812C14.3555 34.375 15.2344 33.4961 15.2344 32.4219C15.2344 31.3477 14.3555 30.4688 13.2812 30.4688H11.9141C8.32031 30.4688 5.2832 32.9102 4.375 36.2305H1.95312C0.878906 36.2305 0 37.1094 0 38.1836C0 39.2578 0.878906 40.1367 1.95312 40.1367H4.32617C5.16602 43.5547 8.24219 46.0938 11.9141 46.0938H23.0469V48.0469C23.0469 49.1211 23.9258 50 25 50C26.0742 50 26.9531 49.1211 26.9531 48.0469V46.0938H38.0859C41.7578 46.0938 44.834 43.5547 45.6738 40.1367H48.0469C49.1211 40.1367 50 39.2578 50 38.1836C50 37.1094 49.1211 36.2305 48.0469 36.2305Z" fill="#059DFD"/>
<path d="M30.8594 5.85938C30.8594 2.62695 28.2324 0 25 0C21.7676 0 19.1406 2.62695 19.1406 5.85938C19.1406 9.0918 21.7676 11.7188 25 11.7188C28.2324 11.7188 30.8594 9.0918 30.8594 5.85938ZM25 7.8125C23.9258 7.8125 23.0469 6.93359 23.0469 5.85938C23.0469 4.78516 23.9258 3.90625 25 3.90625C26.0742 3.90625 26.9531 4.78516 26.9531 5.85938C26.9531 6.93359 26.0742 7.8125 25 7.8125Z" fill="#059DFD"/>
<path d="M17.9688 29.2969C18.7012 29.8438 19.1406 30.7227 19.1406 31.6406V36.3281C19.1406 37.4023 20.0195 38.2812 21.0938 38.2812C22.168 38.2812 23.0469 37.4023 23.0469 36.3281V31.6406C23.0469 29.502 22.0215 27.4512 20.3125 26.1719C19.5801 25.625 19.1406 24.7461 19.1406 23.8281V19.4336C19.1406 18.3887 19.1406 15.625 25 15.625C30.8594 15.625 30.8594 18.3887 30.8594 19.4336V23.8281C30.8594 24.7461 30.4199 25.625 29.6875 26.1719C27.9785 27.4512 26.9531 29.502 26.9531 31.6406V36.3281C26.9531 37.4023 27.832 38.2812 28.9062 38.2812C29.9805 38.2812 30.8594 37.4023 30.8594 36.3281V31.6406C30.8594 30.7227 31.2988 29.8438 32.0312 29.2969C33.7402 28.0176 34.7656 25.9668 34.7656 23.8281V19.4336C34.7656 16.748 33.6621 14.6191 31.5723 13.291C29.9414 12.2461 27.7246 11.7188 25 11.7188C22.2754 11.7188 20.0586 12.2461 18.4277 13.291C16.3379 14.6191 15.2344 16.748 15.2344 19.4336V23.8281C15.2344 25.9668 16.2598 28.0176 17.9688 29.2969Z" fill="#059DFD"/>
</svg>
