<svg width="50" height="50" viewBox="0 0 50 50" fill="none" xmlns="http://www.w3.org/2000/svg">
<g clip-path="url(#clip0)">
<path d="M27.0898 49.4921C22.3633 49.4921 17.7734 48.0273 13.8477 45.2246C8.87695 41.6796 5.5957 36.4062 4.58984 30.3808C3.58398 24.3554 4.99023 18.3105 8.53515 13.3398C12.0801 8.36908 17.3535 5.08783 23.3789 4.08197C26.4941 3.5644 29.6094 3.68158 32.6465 4.4433C33.6914 4.70697 34.3262 5.76166 34.0723 6.80658C33.8184 7.8515 32.7539 8.48627 31.709 8.23236C29.1894 7.60736 26.6113 7.50971 24.0234 7.9394C19.0332 8.76947 14.6582 11.4941 11.7187 15.6152C8.77929 19.7363 7.61718 24.7558 8.44726 29.746C10.166 40.0488 19.9414 47.041 30.2539 45.3222C40.5566 43.6035 47.5488 33.8281 45.8301 23.5156C45.5273 21.7089 44.9707 19.9609 44.1797 18.33C43.7109 17.3632 44.1113 16.1913 45.0781 15.7226C46.0449 15.2538 47.2168 15.6542 47.6855 16.621C48.6426 18.5937 49.3164 20.6933 49.6777 22.8808C50.6836 28.9062 49.2773 34.9511 45.7324 39.9218C42.1875 44.8925 36.9141 48.1738 30.8887 49.1796C29.6289 49.3945 28.3594 49.4921 27.0898 49.4921Z" fill="#059DFD"/>
<path d="M1.95313 19.3069C1.72852 19.3069 1.50391 19.2678 1.2793 19.1897C0.263673 18.8186 -0.253905 17.6956 0.126954 16.6799C1.41602 13.1936 3.33985 10.0296 5.84961 7.26589C8.34961 4.52175 11.3086 2.31471 14.6387 0.703386C15.6055 0.234636 16.7774 0.644792 17.2461 1.61159C17.7149 2.57839 17.3047 3.75026 16.3379 4.21901C10.5762 7.00221 6.00586 12.0413 3.79883 18.0276C3.4961 18.8186 2.74414 19.3069 1.95313 19.3069Z" fill="#059DFD"/>
<path d="M27.1387 43.5644C22.6172 43.5644 18.3594 41.8066 15.166 38.6035C14.4043 37.8418 14.4043 36.6016 15.166 35.8398C15.9277 35.0781 17.168 35.0781 17.9297 35.8398C20.3906 38.3008 23.6621 39.6582 27.1387 39.6582C30.6152 39.6582 33.8867 38.3008 36.3477 35.8398C37.1094 35.0781 38.3496 35.0781 39.1113 35.8398C39.873 36.6016 39.873 37.8418 39.1113 38.6035C35.918 41.8066 31.6602 43.5644 27.1387 43.5644Z" fill="#059DFD"/>
<path d="M6.24024 49.4922C5.74219 49.4922 5.24414 49.2969 4.86329 48.916C4.10157 48.1543 4.10157 46.9141 4.86329 46.1523L10.9961 40.0195C11.7578 39.2578 12.998 39.2578 13.7598 40.0195C14.5215 40.7812 14.5215 42.0215 13.7598 42.7832L7.61719 48.916C7.23633 49.2969 6.73828 49.4922 6.24024 49.4922Z" fill="#059DFD"/>
<path d="M48.0469 49.4922C47.5488 49.4922 47.0508 49.2969 46.6699 48.916L40.5469 42.793C39.7852 42.0312 39.7852 40.791 40.5469 40.0293C41.3086 39.2676 42.5488 39.2676 43.3106 40.0293L49.4336 46.1523C50.1953 46.9141 50.1953 48.1543 49.4336 48.916C49.043 49.2969 48.5449 49.4922 48.0469 49.4922Z" fill="#059DFD"/>
<path opacity="0.3" d="M38.9258 22.8223H32.3242C31.5234 22.8223 30.8008 22.3242 30.5078 21.582C30.2149 20.8301 30.4102 19.9805 31.0059 19.4336L33.916 16.7676H32.3242C31.25 16.7676 30.3711 15.8887 30.3711 14.8145C30.3711 13.7402 31.25 12.8613 32.3242 12.8613H38.9356C39.7363 12.8613 40.459 13.3594 40.752 14.1016C41.0449 14.8437 40.8496 15.7031 40.2539 16.25L37.3438 18.916H38.9356C40.0098 18.916 40.8887 19.7949 40.8887 20.8691C40.8887 21.9434 40.0098 22.8223 38.9258 22.8223Z" fill="#059DFD"/>
<path opacity="0.3" d="M48.0469 11.6895H39.2383C38.418 11.6895 37.6758 11.1719 37.4024 10.4004C37.1289 9.62891 37.3633 8.75977 37.9981 8.23242L42.6172 4.41406H39.2383C38.1641 4.41406 37.2852 3.53516 37.2852 2.46094C37.2852 1.38672 38.1641 0.507812 39.2383 0.507812H48.0469C48.8672 0.507812 49.6094 1.02539 49.8828 1.79688C50.1563 2.56836 49.9219 3.4375 49.2871 3.96484L44.668 7.7832H48.0469C49.1211 7.7832 50 8.66211 50 9.73633C50 10.8105 49.1211 11.6895 48.0469 11.6895Z" fill="#059DFD"/>
</g>
<defs>
<clipPath id="clip0">
<rect width="50" height="50" fill="white"/>
</clipPath>
</defs>
</svg>
