<svg width="50" height="50" viewBox="0 0 50 50" fill="none" xmlns="http://www.w3.org/2000/svg">
<path d="M20.752 32.6562C21.2988 32.6562 21.8262 32.4219 22.1875 32.0117C22.5488 31.6016 22.7246 31.0547 22.6562 30.5078C22.4219 28.623 22.8613 25.8984 23.2812 23.2617C23.6621 20.9082 24.0527 18.4766 24.0527 16.2793C24.0527 12.0508 20.6152 8.62305 16.3867 8.62305C16.3281 8.62305 16.2695 8.62305 16.2109 8.62305C13.6719 8.68164 11.0937 10.0195 9.13086 12.2949C7.01172 14.7559 5.84961 18.0566 5.84961 21.6113C5.84961 25.5078 6.31836 28.1348 6.62109 29.873C6.69922 30.3125 6.76758 30.6933 6.80664 31.0156C6.93359 31.9629 7.75391 32.666 8.70117 32.666H20.752V32.6562ZM11.9336 14.9023C13.1836 13.3984 14.8047 12.4902 16.2891 12.4512C16.3184 12.4512 16.3477 12.4512 16.377 12.4512C18.4961 12.4512 20.2148 14.1699 20.2148 16.2793C20.2148 18.1738 19.8535 20.4492 19.4922 22.6562C19.1406 24.8437 18.8086 26.9238 18.7598 28.8281H10.332C10.0488 27.2168 9.67773 24.8926 9.67773 21.6113C9.67773 19.0332 10.4785 16.6504 11.9336 14.9023Z" fill="#059DFD"/>
<path opacity="0.3" d="M40.3711 25.957H28.4766C27.5586 25.957 26.7676 26.6113 26.5918 27.5195C25.9473 30.918 25.918 33.3984 25.9668 33.8574C26.1816 37.3633 28.6035 40.3418 31.8652 41.0938C32.4414 41.2305 33.0274 41.2891 33.6133 41.2891C37.3438 41.2891 40.586 38.5156 41.1621 34.8438L42.2559 28.1836C42.3438 27.627 42.1875 27.0605 41.8262 26.6309C41.4649 26.2012 40.9375 25.957 40.3711 25.957ZM37.3828 34.2383C37.0996 36.0742 35.4785 37.4512 33.6035 37.4512C33.3106 37.4512 33.0176 37.4219 32.7246 37.3535C31.0449 36.9629 29.8047 35.3027 29.7852 33.4082V33.3496C29.8047 32.1777 29.9023 31.0352 30.0879 29.7852H38.1152L37.3828 34.2383Z" fill="#059DFD"/>
<path d="M44.1504 12.8906C44.1504 13.5645 44.1406 14.209 44.1113 14.8145C44.0625 15.9277 43.0664 16.7578 41.9629 16.6016C41.9434 16.6016 41.9238 16.5918 41.9043 16.5918C40.9473 16.4551 40.2441 15.6152 40.2832 14.6484C40.3027 14.0918 40.3223 13.5059 40.3223 12.8906C40.3223 7.14844 36.416 3.88672 33.7109 3.83789C33.6816 3.83789 33.6523 3.83789 33.623 3.83789C31.5039 3.83789 29.7852 5.55664 29.7852 7.66602C29.7852 9.56055 30.1563 11.8359 30.5078 14.043C30.8594 16.2305 31.1914 18.3105 31.2402 20.2148H41.2598C42.3145 20.2148 43.1738 21.0742 43.1738 22.1289C43.1738 23.1836 42.3145 24.043 41.2598 24.043H29.2871C28.9258 24.043 28.5547 23.9551 28.252 23.7598C27.5977 23.3594 27.2559 22.6172 27.3535 21.8848C27.5879 20 27.1484 17.2754 26.7285 14.6387C26.3477 12.2852 25.957 9.85352 25.957 7.65625C25.957 3.4375 29.3945 0 33.623 0C33.6816 0 33.7402 0 33.7988 0C38.7988 0.107422 44.1504 5.3125 44.1504 12.8906Z" fill="#059DFD"/>
<path opacity="0.3" d="M21.5234 34.5703H9.62888C9.06248 34.5703 8.53513 34.8145 8.1738 35.2441C7.81248 35.6738 7.65623 36.2402 7.74412 36.7871L8.83787 43.5352C9.41404 47.2168 12.6562 49.9902 16.3965 49.9902C16.9824 49.9902 17.5683 49.9219 18.1445 49.7949C21.3965 49.043 23.8183 46.0742 24.0332 42.5586C24.082 42.0898 24.0625 39.5605 23.4082 36.123C23.2324 35.2246 22.4414 34.5703 21.5234 34.5703ZM17.2754 46.0645C16.9824 46.1328 16.6894 46.1621 16.3965 46.1621C14.5312 46.1621 12.9004 44.7754 12.6172 42.9395L11.8847 38.3984H19.9121C20.0976 39.668 20.1953 40.8691 20.2148 42.0508V42.1094C20.1855 44.0137 18.9551 45.6836 17.2754 46.0645Z" fill="#059DFD"/>
</svg>
