<svg width="200" height="200" viewBox="0 0 200 200" fill="none" xmlns="http://www.w3.org/2000/svg">
<g clip-path="url(#clip0)">
<path d="M150.2 191C150.1 190.4 150 190 150 189.5V187.8C152.7 174.8 146.2 160.8 144.7 157.7C144.6 157.4 144.5 157.2 144.4 157.1L137.4 140.5C136.5 138 135.5 136.2 134.5 135.1C134.7 134.9 134.9 134.7 134.9 134.4L136.1 119.6C136.3 118.1 135.8 116.6 134.8 115.5C133.8 114.4 132.5 113.7 131 113.5L94.5 110.4C91.4 110.1 88.6 112.4 88.4 115.5L83.6 171.5L82.9 179.9C82.7 181.4 83.2 182.9 84.2 184C85.2 185.1 86.5 185.8 88 186L103.5 187.4C103.6 187.5 103.6 187.6 103.6 187.6C103.7 187.8 106.6 191.5 111.8 195.2C112.3 195.6 112.9 195.5 113.2 195C113.3 194.9 113.4 194.7 113.4 194.5C113.4 194.1 113.3 193.8 113 193.6C109.9 191.4 107.6 189 106.3 187.7L124.5 189.3H125C126.4 189.3 127.6 188.8 128.6 187.9C129.7 186.9 130.4 185.6 130.6 184.1L132.1 166.3L132.3 166.9C132.4 167.4 133 167.8 133.5 167.6C134 167.5 134.4 166.9 134.2 166.4L128 141.8C127.2 138.5 128.5 135.5 130.1 134.9C131.5 134.5 133.5 135.9 135.5 141.2L142.5 157.8C142.5 157.9 142.6 157.9 142.6 157.9C142.7 158.1 151 173.9 148 187.5V187.7C147.9 187.9 147.7 191.5 150.2 197.8C150.3 198 150.4 198.2 150.6 198.3C150.7 198.4 150.7 198.4 150.8 198.4C150.9 198.7 151 198.8 151 198.9C151.2 199.3 151.6 199.5 151.9 199.5C152.1 199.5 152.2 199.4 152.3 199.4C152.8 199.1 153 198.6 152.8 198C152.8 198.2 150.8 193.9 150.2 191ZM126.8 135.9C126 137.7 125.7 140.1 126.3 142.4L126.6 143.6L123.8 180L90.7 177.1L95.6 120.5L127.8 123.2L126.8 135.9ZM134.3 119.5L133.1 133.7C131.6 132.7 130.4 132.8 129.6 133C129.3 133.1 129.1 133.2 128.9 133.3L129.8 122.3C129.9 122 129.7 121.8 129.6 121.6C129.5 121.4 129.2 121.2 128.9 121.2L94.6 118.3C94.1 118.3 93.6 118.7 93.5 119.2L88.5 177.8C88.4 178.4 88.9 178.8 89.4 178.9L124.5 181.9C124.6 181.9 124.6 181.9 124.6 181.9C124.9 181.9 125.1 181.8 125.3 181.6C125.5 181.4 125.7 181.2 125.7 180.9L128.1 149.4L130.8 160.1V160.2L128.8 183.7C128.7 184.7 128.2 185.6 127.5 186.2C126.8 186.8 125.8 187.1 124.8 187L88.3 183.9C87.3 183.8 86.4 183.3 85.8 182.6C85.2 181.9 84.9 180.9 85 179.9L90.5 115.6C90.7 113.6 92.4 112.1 94.5 112.3L131 115.4C132 115.5 132.9 116 133.5 116.7C134.1 117.6 134.4 118.5 134.3 119.5Z" fill="#059DFD"/>
<path d="M115.4 115.9L110.4 115.5C109.9 115.4 109.4 115.9 109.3 116.4C109.2 117 109.7 117.4 110.2 117.5L115.2 117.9C115.3 117.9 115.3 117.9 115.3 117.9C115.8 117.9 116.2 117.5 116.3 117C116.4 116.5 116 116 115.4 115.9Z" fill="#059DFD"/>
<path d="M163.6 174.1C161.9 175.6 160.1 177 158.3 178.4C157.8 178.7 157.8 179.4 158.1 179.8C158.3 180.1 158.6 180.2 158.9 180.2C159.1 180.2 159.3 180.1 159.5 180C161.3 178.6 163.1 177.1 164.9 175.6C165.3 175.2 165.4 174.6 165 174.2C164.6 173.8 164 173.8 163.6 174.1Z" fill="#059DFD"/>
<path d="M178.3 158.2C176.2 161.1 173.8 164 171.4 166.6C171 167 171.1 167.6 171.5 168C171.7 168.2 171.9 168.3 172.2 168.3C172.5 168.3 172.7 168.2 172.9 168C175.4 165.3 177.8 162.4 180 159.4C180.3 158.9 180.2 158.3 179.8 158C179.2 157.7 178.6 157.8 178.3 158.2Z" fill="#059DFD"/>
<path d="M116.8 68.2001C117.6 69.2001 118.9 69.8001 120.2 69.8001C121.5 69.8001 122.7 69.2001 123.6 68.2001L134.6 55.0001C135.3 54.1001 135.7 53.0001 135.6 51.8001C135.5 50.6001 134.9 49.6001 134 48.8001C133.1 48.0001 131.9 47.7001 130.9 47.8001C129.7 47.9001 128.7 48.5001 127.9 49.4001L120.3 58.6001L118.2 56.1001C117.4 55.2001 116.4 54.6001 115.2 54.5001C114 54.4001 112.9 54.7001 112 55.5001C111.1 56.3001 110.5 57.3001 110.4 58.5001C110.3 59.7001 110.6 60.8001 111.4 61.7001L116.8 68.2001ZM113.1 56.9001C113.6 56.5001 114.1 56.3001 114.7 56.3001H114.9C115.5 56.4001 116.1 56.6001 116.5 57.1001L119.4 60.6001C119.8 61.1001 120.6 61.1001 121 60.6001L129.4 50.5001C129.8 50.0001 130.4 49.7001 131 49.7001C131.6 49.6001 132.2 49.9001 132.8 50.3001C133.3 50.7001 133.6 51.3001 133.6 51.9001C133.7 52.5001 133.5 53.1001 133.1 53.7001L122.1 66.9001C121.6 67.5001 121 67.8001 120.2 67.8001C119.5 67.8001 118.8 67.5001 118.3 66.9001L112.8 60.3001C112.4 59.8001 112.2 59.2001 112.2 58.5001C112.2 57.8001 112.6 57.3001 113.1 56.9001Z" fill="#059DFD"/>
<path d="M190.5 138.8C190 138.6 189.4 138.8 189.2 139.3C187.7 142.6 186.1 145.9 184.3 149C184 149.5 184.1 150.1 184.6 150.4C184.8 150.5 184.9 150.6 185.1 150.6C185.5 150.6 185.8 150.4 186 150.1C187.8 146.9 189.5 143.5 191 140.2C191.3 139.6 191 139 190.5 138.8Z" fill="#059DFD"/>
<path d="M149.1 105.3H161.9C162.5 105.3 162.9 104.8 162.9 104.3C162.9 103.8 162.5 103.3 161.9 103.3H149.1C148.5 103.3 148.1 103.8 148.1 104.3C148.1 104.9 148.6 105.3 149.1 105.3Z" fill="#059DFD"/>
<path d="M196.2 85.9C196.3 86.4 196.7 86.7 197.2 86.7H197.4C198 86.6 198.3 86.1 198.2 85.6C197.7 82 196.9 78.3 196 74.7C195.8 74.2 195.3 73.9 194.8 74C194.3 74.2 194 74.7 194.1 75.2C194.9 78.6 195.7 82.3 196.2 85.9Z" fill="#059DFD"/>
<path d="M199.2 96.6C199.2 96 198.7 95.6 198.2 95.6C197.6 95.6 197.2 96.1 197.2 96.6C197.3 97.7 197.3 98.9 197.3 100.1C197.3 102.5 197.2 105 197 107.5C196.9 108.1 197.4 108.5 197.9 108.6H198C198.5 108.6 199 108.2 199 107.7C199.2 105.2 199.3 102.7 199.3 100.1C199.2 99 199.2 97.8 199.2 96.6Z" fill="#059DFD"/>
<path d="M187.8 53.9C187.5 53.4 186.9 53.2 186.4 53.5C185.9 53.8 185.7 54.4 186 54.9C187.7 58.1 189.2 61.5 190.5 64.8C190.7 65.2 191 65.4 191.4 65.4C191.5 65.4 191.7 65.4 191.8 65.3C192.3 65.1 192.6 64.5 192.4 64C191.1 60.6 189.5 57.2 187.8 53.9Z" fill="#059DFD"/>
<path d="M196.8 117.6C196.3 117.5 195.7 117.9 195.6 118.4C194.9 122 194 125.5 193 129C192.8 129.6 193.1 130.1 193.7 130.3C193.8 130.4 193.9 130.4 194 130.4C194.4 130.4 194.8 130.1 194.9 129.7C196 126.2 196.9 122.5 197.6 118.9C197.7 118.3 197.3 117.7 196.8 117.6Z" fill="#059DFD"/>
<path d="M2 101.4C2 100.8 1.5 100.4 1 100.4C0.4 100.4 0 100.9 0 101.4C0.1 105.1 0.3 108.8 0.7 112.5C0.7 112.9 1.1 113.3 1.6 113.3C1.7 113.3 1.7 113.3 1.7 113.3C2.3 113.2 2.6 112.7 2.6 112.2C2.2 108.7 2 105 2 101.4Z" fill="#059DFD"/>
<path d="M57.4 188.5C54.1 186.9 50.9 185.2 47.8 183.2C47.3 182.9 46.7 183 46.4 183.5C46.1 184 46.2 184.6 46.7 184.9C49.8 186.9 53.1 188.6 56.5 190.3C56.7 190.4 56.9 190.4 57 190.4C57.4 190.4 57.7 190.2 57.9 189.8C58.2 189.3 57.9 188.8 57.4 188.5Z" fill="#059DFD"/>
<path d="M7.60001 133.4C6.40001 130 5.30001 126.5 4.50001 122.9C4.40001 122.4 3.80001 122 3.30001 122.2C2.80001 122.3 2.40001 122.9 2.60001 123.4C3.40001 127 4.50001 130.6 5.80001 134.1C6.00001 134.5 6.3 134.8 6.70001 134.8C6.8 134.8 6.90001 134.8 7.10001 134.7C7.60001 134.5 7.90001 133.9 7.60001 133.4Z" fill="#059DFD"/>
<path d="M99.7 198C96.3 198 92.9 197.8 89.6 197.5L88.9 197.4C88.4 197.3 87.9 197.7 87.8 198.3C87.7 198.9 88.1 199.3 88.7 199.4L89.5 199.5C92.9 199.9 96.4 200 99.9 200C100.4 200.1 100.8 199.6 100.8 199C100.8 198.4 100.2 198 99.7 198Z" fill="#059DFD"/>
<path d="M78 195.6C74.5 194.8 70.9 193.8 67.5 192.6C67 192.4 66.4 192.7 66.2 193.2C66 193.7 66.3 194.3 66.8 194.5C70.3 195.7 73.9 196.7 77.5 197.5H77.8C78.3 197.5 78.7 197.2 78.8 196.7C78.9 196.3 78.6 195.7 78 195.6Z" fill="#059DFD"/>
<path d="M107.8 153C108 153.3 108.3 153.4 108.6 153.4C108.8 153.4 109.1 153.3 109.2 153.2L115 148.3C115.4 147.9 115.5 147.3 115.1 146.9C114.7 146.5 114.1 146.4 113.7 146.8L108.7 151L106.6 148.5C106.2 148.1 105.6 148 105.2 148.4C104.8 148.8 104.7 149.4 105.1 149.8L107.8 153Z" fill="#059DFD"/>
<path d="M108.8 161.1C109.2 161.2 109.5 161.2 109.8 161.2C115.6 161.2 120.6 156.8 121.1 150.9C121.4 147.9 120.4 145 118.5 142.6C116.6 140.3 113.8 138.8 110.8 138.5C107.8 138.2 104.9 139.2 102.5 141.1C100.2 143 98.7 145.8 98.4 148.8C97.9 155.1 102.5 160.6 108.8 161.1ZM100.4 149C100.6 146.5 101.8 144.3 103.7 142.7C105.4 141.2 107.5 140.5 109.7 140.5C110 140.5 110.3 140.6 110.6 140.6C113.1 140.8 115.3 142 116.9 143.9C118.5 145.8 119.2 148.2 119 150.7C118.5 155.9 114 159.6 108.9 159.2C103.8 158.7 100 154.1 100.4 149Z" fill="#059DFD"/>
<path d="M77.1 92.3C76.6 90.8 75.2 89.5 73 88.6C70.8 87.6 68.5 87.8 66.7 89.3C66.6 88.7 66.5 88.2 66.3 87.6C65.7 85.9 64.4 84.6 62.5 83.7C60.5 82.7 57.8 82.3 55.4 84.7C55.3 84.3 55.2 84 55.1 83.7C54.5 82 53.3 80.7 51.4 79.9C49.1 78.8 46.1 78.3 43.5 80.9C43.5 80.8 43.4 80.7 43.4 80.6C42.8 79 41.4 77.7 39 76.7C35.9 75.3 32.6 76.9 30.8 80.4L27.6 88.5L24.1 97.4C20.9 104.2 20.8 111 20.8 117.7V118.1C20.7 124.8 20.3 127.8 18.1 132.5L17.9 132.9C17.9 133 17.6 133.7 17.1 134.9C17.4 134.8 17.7 134.8 18 134.8C18.4 134.8 18.8 134.9 19.1 135C19.5 134 19.8 133.3 19.9 133.2C22.1 128.5 22.7 125.1 22.7 118.3C22.8 111.6 23 104.7 26 98.3L33 81.2C33.2 80.7 33.5 80.3 33.8 79.8C34.7 78.6 36 78 37.3 78.1C37.5 78.1 37.6 78.2 37.7 78.2H37.8C38.1 78.3 38.3 78.4 38.6 78.5C40.4 79.3 41.5 80.2 41.9 81.3C42.2 82 42.2 82.9 41.8 84C41.7 84 41.7 84.1 41.7 84.1C41.6 84.3 41.5 84.4 41.5 84.6C41.4 84.8 41.3 85 41.2 85.2L40 87.6C39.7 88.1 39.9 88.7 40.5 89C40.6 89.1 40.8 89.1 40.9 89.1C41.3 89.1 41.6 88.9 41.8 88.5L43 86L43.6 84.8C45.4 81.2 47.6 80.2 50.8 81.7C52.2 82.4 53.1 83.3 53.5 84.4C53.6 84.6 53.6 84.8 53.7 85V85.2C53.7 85.4 53.8 85.5 53.8 85.7V86.4C53.8 86.5 53.7 86.6 53.7 86.7C53.7 86.8 53.6 87 53.6 87.1C53.6 87.2 53.5 87.3 53.5 87.4C53.4 87.5 53.4 87.7 53.4 87.8C53.4 87.9 53.3 87.9 53.3 88C53.2 88.2 53.2 88.3 53.1 88.4C53.1 88.5 53 88.5 53 88.5C52.9 88.7 52.9 88.8 52.8 89C52.7 89.1 52.7 89.1 52.7 89.1C52.6 89.3 52.5 89.4 52.5 89.5L50.9 93C50.6 93.5 50.8 94.1 51.4 94.4C51.5 94.5 51.7 94.5 51.8 94.5C52.2 94.5 52.5 94.3 52.7 93.9L54.5 90.2L55.1 89C57.4 84.3 60 84.8 61.8 85.7C63.2 86.4 64.1 87.3 64.6 88.5C65.2 90.2 64.7 92.1 64 93.3L61.6 98.3C61.3 98.8 61.5 99.4 62.1 99.7C62.2 99.8 62.4 99.8 62.5 99.8C62.9 99.8 63.2 99.6 63.4 99.2L65.8 94.2C66.9 91.8 69 89.2 72.2 90.7C73.9 91.5 74.9 92.3 75.2 93.3C75.3 93.7 75.4 94 75.4 94.4C75.4 95.5 74.8 96.9 74.2 98.2L69.5 108.1C69.5 108.2 69.4 108.2 69.4 108.2L64.6 118.3L64.5 118.4C64.4 118.5 64.4 118.6 64.4 118.8C64.4 119.2 64.6 119.6 65 119.7C65.1 119.8 65.3 119.8 65.4 119.8H65.5C65.6 119.8 65.6 119.8 65.6 119.8C65.7 119.8 65.8 119.8 65.9 119.7C66 119.7 66 119.6 66 119.6C66.1 119.5 66.2 119.5 66.2 119.4L66.3 119.3C66.4 119.2 66.5 119.1 66.5 119L70.6 110.6L72.7 114.4C73.9 116.6 73.8 119.2 72.4 121C70.9 122.9 69.2 125.1 67.6 127.2C66 129.3 64.5 131.3 63.1 133C60.8 135.9 58.7 138 57 139C55.6 139.8 54 140.2 52.5 140.6C50.1 141.2 47.6 141.7 46.1 144C46 144.1 46 144.1 46 144.2L45.7 145L45.3 146.1C46 146.4 46.5 147 46.8 147.6L47.6 145.6C47.8 145 48.2 144.4 48.8 144C49.9 143.2 51.4 142.8 53 142.5C54.7 142.1 56.5 141.7 58.1 140.7C60.1 139.6 62.3 137.4 64.8 134.2C66.2 132.5 67.7 130.5 69.3 128.4C70.9 126.3 72.6 124.1 74.1 122.2C76 119.8 76.2 116.3 74.6 113.4L71.8 108.4L75.8 100.2L76.4 99C77 96.6 77.9 94.4 77.1 92.3Z" fill="#059DFD"/>
<path d="M14.2 142.2C11.2 149.2 7.69999 157.6 7.69999 157.6C7.49999 158.1 7.69999 158.7 8.19999 158.9C8.29999 159 8.49999 159 8.59999 159C8.69999 159 8.79999 159 8.89999 158.9C8.99999 158.9 8.99999 158.8 8.99999 158.8C9.09999 158.7 9.19999 158.7 9.19999 158.6L9.29999 158.5C9.39999 158.4 9.49999 158.3 9.49999 158.2V158.1C9.49999 158.1 12.7 150.4 15.6 143.5C14.9 143.4 14.5 142.8 14.2 142.2Z" fill="#059DFD"/>
<path d="M42.9 155.4C42.4 155.4 42 155.3 41.6 155.1L36.8 167.6C36.8 167.7 36.8 167.7 36.8 167.7C36.6 168.2 36.9 168.7 37.4 168.9C37.5 169 37.7 169 37.8 169C38.2 169 38.6 168.8 38.7 168.4L43.7 155.3C43.4 155.3 43.2 155.4 42.9 155.4Z" fill="#059DFD"/>
<path d="M46 18.6C46.2 18.6 46.4 18.5 46.5 18.4C49.5 16.4 52.7 14.6 56 13C56.5 12.7 56.7 12.2 56.5 11.6C56.2 11.1 55.7 10.9 55.1 11.1C51.8 12.8 48.5 14.6 45.4 16.6C44.9 16.9 44.8 17.5 45.1 18C45.4 18.4 45.7 18.6 46 18.6Z" fill="#059DFD"/>
<path d="M171.9 28.6H139.1C135.6 28.6 132.7 31.5 132.7 35V39.5C130.1 38.1 127.2 37.4 124.2 37.2V29.6C124.2 29.1 123.8 28.6 123.2 28.6L94.1 28.5C93.7 26.3 91.7 24.6 89.3 24.6C86.6 24.6 84.4 26.8 84.4 29.5C84.4 32.3 86.6 34.4 89.3 34.4C91.6 34.4 93.6 32.7 94.1 30.5H122.2V37.2C118.6 37.3 115.2 38.3 112.2 40L110.2 41.3C109.2 42 108.3 42.8 107.5 43.6C106.8 44.3 106.1 45 105.5 45.9C102.9 49.5 101.3 53.8 101.3 58.5C101.3 58.9 101.4 60.1 101.5 60.5C101.6 61.7 101.8 62.9 102.1 64.1C102.4 65.1 102.7 66.1 103.1 67.1C106.3 74.6 113.6 79.8 122.2 80.1V87.5C122.2 88 122.6 88.5 123.2 88.5H132.7V102.8C132.7 106.3 135.6 109.2 139.1 109.2H172C175.5 109.2 178.3 106.3 178.3 102.8V35C178.3 31.5 175.4 28.6 171.9 28.6ZM89.4 32.5C87.8 32.5 86.5 31.2 86.5 29.6C86.5 28 87.8 26.7 89.4 26.7C91 26.7 92.3 28 92.3 29.6C92.3 31.2 91 32.5 89.4 32.5ZM132.7 86.7H124.2V80.3C127.3 80.1 130.1 79.3 132.7 78V86.7ZM122.9 78.2C112.1 78.2 103.4 69.5 103.4 58.7C103.4 47.9 112.1 39.2 122.9 39.2C133.7 39.2 142.5 47.9 142.4 58.7C142.4 69.5 133.7 78.2 122.9 78.2ZM176.3 102.9C176.3 105.3 174.3 107.3 171.9 107.3H139.1C136.7 107.3 134.7 105.3 134.7 102.9V98.9H176.3V102.9ZM176.3 97.1H134.7V88.8H152.2C152.7 91 154.6 92.7 157 92.7C159.7 92.7 161.9 90.5 161.9 87.8C161.9 85 159.7 82.9 157 82.9C154.7 82.9 152.7 84.6 152.2 86.8H134.7V76.9C140.6 73.1 144.4 66.4 144.4 58.9C144.4 51.4 140.5 44.8 134.7 40.9V39.3H176.3V97.1ZM154.2 87.6C154.2 86 155.5 84.7 157.1 84.7C158.7 84.7 160 86 160 87.6C160 89.2 158.7 90.5 157.1 90.5C155.5 90.6 154.2 89.3 154.2 87.6ZM176.3 37.2H134.7V35C134.7 32.6 136.7 30.6 139.1 30.6H171.9C174.3 30.6 176.3 32.6 176.3 35V37.2Z" fill="#059DFD"/>
<path d="M1.39999 91.3001C1.49999 91.3001 1.49999 91.3001 1.49999 91.3001C1.99999 91.3001 2.39999 90.9001 2.49999 90.4001V90.3001C2.89999 86.7001 3.39999 83.1001 4.19999 79.6001C4.29999 79.1001 3.99999 78.5001 3.39999 78.4001C2.89999 78.3001 2.29999 78.6 2.19999 79.2C1.39999 82.8 0.799995 86.4001 0.499995 90.1001V90.2C0.399995 90.8 0.799995 91.2001 1.39999 91.3001Z" fill="#059DFD"/>
<path d="M29 32.4999C29.3 32.4999 29.5 32.3999 29.7 32.1999C31.2 30.5999 32.8 29.0999 34.4 27.6999C35.5 26.6999 36.6 25.7999 37.7 24.7999C38.1 24.3999 38.2 23.7999 37.9 23.3999C37.5 22.9999 36.9 22.8999 36.5 23.1999C35.4 24.0999 34.2 25.0999 33.1 26.0999C31.4 27.5999 29.8 29.0999 28.3 30.6999C27.9 31.0999 27.9 31.6999 28.3 32.0999C28.5 32.3999 28.7 32.4999 29 32.4999Z" fill="#059DFD"/>
<path d="M14.9 49.7C15.1 49.8 15.3 49.9 15.4 49.9C15.8 49.9 16.1 49.7 16.3 49.4C18.2 46.3 20.3 43.3 22.5 40.5C22.9 40.1 22.8 39.5 22.3 39.1C21.9 38.7 21.3 38.8 20.9 39.3C18.6 42.2 16.5 45.3 14.6 48.5C14.3 48.8 14.5 49.4 14.9 49.7Z" fill="#059DFD"/>
<path d="M5.8 69.8C5.9 69.9 6 69.9 6.1 69.9C6.5 69.9 6.9 69.6 7 69.2C8.1 65.8 9.5 62.4 11.1 59.1C11.4 58.6 11.1 58 10.6 57.7C10.1 57.4 9.5 57.7 9.2 58.2C7.6 61.5 6.2 65 5 68.6C5 69 5.3 69.6 5.8 69.8Z" fill="#059DFD"/>
<path d="M100 15.5H97.9V6.70002C97.9 4.40002 96 2.50002 93.7 2.50002H85.4C83.1 2.50002 81.2 4.40002 81.2 6.70002V15.5H79.1V6.70002C79.1 3.20002 81.9 0.400024 85.4 0.400024H93.7C97.2 0.400024 100 3.20002 100 6.70002V15.5Z" fill="#059DFD"/>
<path d="M93.7 93.9001H85.4C81.9 93.9001 79.1 91.1001 79.1 87.6001V78.7001H81.2V87.6001C81.2 89.9001 83.1 91.8001 85.4 91.8001H93.7C96 91.8001 97.9 89.9001 97.9 87.6001V78.7001H100V87.6001C100 91.1001 97.2 93.9001 93.7 93.9001Z" fill="#059DFD"/>
<path d="M92.5 73.7H86.6C82.5 73.7 79.1 70.3 79.1 66.2V28.1C79.1 24 82.5 20.6 86.6 20.6H92.5C96.6 20.6 100 24 100 28.1V66.2C100 70.3 96.6 73.7 92.5 73.7ZM86.6 22.7C83.6 22.7 81.2 25.1 81.2 28.1V66.2C81.2 69.2 83.6 71.6 86.6 71.6H92.5C95.5 71.6 97.9 69.2 97.9 66.2V28.1C97.9 25.1 95.5 22.7 92.5 22.7H86.6Z" fill="#059DFD"/>
<path d="M102.5 64.5V70.7C102.5 75.4 98.7 79.3 93.9 79.3H85.1C80.4 79.3 76.5 75.5 76.5 70.7V23.6C76.5 18.9 80.3 15 85.1 15H93.9C98.6 15 102.5 18.8 102.5 23.6V54.9C102.6 54.6 102.7 54.4 102.8 54.1C102.9 53 103.5 51.9 104.6 51.3V23.6C104.6 17.7 99.8 12.9 94 12.9H85.2C79.3 12.9 74.5 17.7 74.5 23.6V70.8C74.5 76.7 79.3 81.5 85.2 81.5H94C99.9 81.5 104.6 76.7 104.6 70.8V66.8C103.5 66.5 102.8 65.6 102.5 64.5Z" fill="#059DFD"/>
<path d="M17.8 145.6L14.3 144.1C12.8 143.4 12.1 141.4 12.9 139.6L14.5 135.9C14.9 135.1 15.5 134.4 16.2 134C17 133.6 17.9 133.5 18.7 133.8L22.2 135.3L21.4 137.2L17.9 135.7C17.6 135.6 17.4 135.7 17.2 135.8C16.9 136 16.6 136.3 16.4 136.7L14.8 140.4C14.4 141.2 14.7 142 15.1 142.2L18.6 143.7L17.8 145.6Z" fill="#059DFD"/>
<path d="M43.2 156.2C42.8 156.2 42.5 156.1 42.2 156L38.7 154.5L39.5 152.6L43 154.1C43.4 154.3 44.1 153.9 44.5 153.1L46.1 149.4C46.5 148.6 46.2 147.8 45.8 147.6L42.3 146.1L43.1 144.2L46.6 145.7C48.1 146.4 48.8 148.4 48 150.2L46.4 153.9C45.7 155.3 44.4 156.2 43.2 156.2Z" fill="#059DFD"/>
<path d="M35.9 155.1C34.9 155.1 33.8 154.9 32.8 154.5L22 149.9C18 148.2 16.2 143.6 17.9 139.6C18.7 137.7 20.3 136.2 22.2 135.4C24.1 134.6 26.3 134.6 28.2 135.5L39 140C40.9 140.8 42.4 142.4 43.2 144.3C44 146.3 44 148.4 43.1 150.3C41.8 153.3 38.9 155.1 35.9 155.1ZM25 136.8C24.3 136.8 23.5 136.9 22.8 137.2C21.4 137.8 20.2 138.9 19.6 140.3C18.3 143.2 19.7 146.6 22.6 147.9L33.4 152.5C36.3 153.8 39.8 152.4 41 149.5C41.6 148.1 41.6 146.5 41.1 145.1C40.5 143.7 39.4 142.5 38 141.9L27.2 137.3C26.6 136.9 25.8 136.8 25 136.8Z" fill="#059DFD"/>
<path d="M28.2 147.6C28 147.6 27.8 147.5 27.7 147.4C27.5 147.3 27.3 147 27.2 146.7L26.5 143.3C26.4 142.7 26.7 142.2 27.3 142.1C27.9 142 28.4 142.3 28.5 142.9L29 145.2L35.9 143.3C36.5 143.2 37 143.5 37.2 144C37.4 144.6 37 145.1 36.5 145.3L28.5 147.5C28.3 147.6 28.3 147.6 28.2 147.6Z" fill="#059DFD"/>
</g>
<defs>
<clipPath id="clip0">
<rect width="200" height="200" fill="white"/>
</clipPath>
</defs>
</svg>
