<svg width="207" height="200" viewBox="0 0 207 200" fill="none" xmlns="http://www.w3.org/2000/svg">
<g clip-path="url(#clip0)">
<path d="M124.28 4.19997C127.98 4.99997 131.68 5.89997 135.38 7.19997C135.48 7.29997 135.58 7.29997 135.68 7.29997C136.08 7.29997 136.48 6.99997 136.68 6.59997C136.88 5.99997 136.58 5.39997 135.98 5.29997C132.28 4.09997 128.48 3.09997 124.68 2.29997C124.08 2.19997 123.58 2.59997 123.38 3.09997C123.38 3.49997 123.78 4.09997 124.28 4.19997Z" fill="#059DFD"/>
<path d="M178.68 36.4C178.68 35.8 178.18 35.3 177.58 35.3C176.98 35.3 176.48 35.8 176.48 36.4C176.48 38.6 178.18 40.4 180.58 40.8V40.9C180.58 41.5 181.08 42 181.68 42C182.28 42 182.78 41.5 182.78 40.9V40.8C185.08 40.4 186.88 38.6 186.88 36.4C186.88 34.2 185.18 32.4 182.78 32V28C183.68 28.3 184.38 29.1 184.38 29.8C184.38 30.4 184.88 30.9 185.48 30.9C186.08 30.9 186.58 30.4 186.58 29.8C186.58 27.8 184.98 26.2 182.88 25.7V25.5C182.88 24.9 182.38 24.4 181.78 24.4C181.18 24.4 180.68 24.9 180.68 25.5V25.7C178.48 26.1 176.78 27.8 176.78 29.8C176.78 31.8 178.38 33.5 180.68 33.9V38.5C179.48 38.2 178.68 37.4 178.68 36.4ZM182.78 34.2C183.98 34.5 184.78 35.4 184.78 36.4C184.78 37.4 183.98 38.2 182.78 38.6V34.2ZM178.88 29.9C178.88 29.1 179.58 28.3 180.58 28V31.8C179.68 31.5 178.88 30.7 178.88 29.9Z" fill="#059DFD"/>
<path d="M146.08 11.3C149.58 12.9 152.98 14.7 156.18 16.7C156.38 16.8 156.58 16.9 156.68 16.9C157.08 16.9 157.38 16.7 157.58 16.4C157.88 15.9 157.78 15.2 157.18 14.9C153.88 12.9 150.38 11 146.88 9.39997C146.38 9.09997 145.68 9.39997 145.48 9.89997C145.28 10.5 145.48 11.1 146.08 11.3Z" fill="#059DFD"/>
<path d="M78.58 5.40006C78.68 5.40006 78.78 5.40006 78.88 5.30006C82.58 4.40006 86.38 3.60006 90.08 3.10006C90.68 3.00006 91.08 2.50006 90.98 1.90006C90.88 1.30006 90.38 0.900056 89.78 1.00006C85.88 1.50006 82.08 2.30006 78.28 3.30006C77.68 3.50006 77.38 4.00006 77.58 4.60006C77.68 5.10006 78.08 5.40006 78.58 5.40006Z" fill="#059DFD"/>
<path d="M121.98 52.6C121.98 49.7 119.68 47.4 116.88 47.4C114.08 47.4 111.78 49.8 111.78 52.6C111.78 55.4 114.08 57.8 116.88 57.8C119.68 57.8 121.98 55.5 121.98 52.6ZM113.98 52.6C113.98 50.9 115.28 49.5 116.98 49.5C118.58 49.5 119.98 50.9 119.98 52.6C119.98 54.3 118.68 55.7 116.98 55.7C115.28 55.7 113.98 54.3 113.98 52.6Z" fill="#059DFD"/>
<path d="M203.28 88.3999C203.38 88.8999 203.78 89.2999 204.38 89.2999C204.48 89.2999 204.48 89.2999 204.58 89.2999C205.18 89.1999 205.58 88.6999 205.48 88.0999C204.98 84.1999 204.18 80.3999 203.18 76.6999C202.98 76.0999 202.48 75.7999 201.88 75.9999C201.28 76.1999 200.98 76.6999 201.18 77.2999C201.98 80.7999 202.68 84.5999 203.28 88.3999Z" fill="#059DFD"/>
<path d="M118.28 108.4C125.58 108.4 131.48 102.4 131.48 95.1C131.48 87.8 125.48 81.8 118.28 81.8C110.98 81.8 105.08 87.8 105.08 95.1C104.98 102.5 110.98 108.4 118.28 108.4ZM118.28 83.9C124.38 83.9 129.38 88.9 129.38 95.1C129.38 101.3 124.38 106.3 118.28 106.3C112.18 106.3 107.18 101.3 107.18 95.1C107.08 88.9 112.08 83.9 118.28 83.9Z" fill="#059DFD"/>
<path d="M181.68 46.4C188.98 46.4 194.88 40.5 194.88 33.2C194.88 25.9 188.98 20 181.68 20C174.38 20 168.48 25.9 168.48 33.2C168.48 40.5 174.48 46.4 181.68 46.4ZM181.68 22.2C187.78 22.2 192.78 27.2 192.78 33.3C192.78 39.4 187.78 44.4 181.68 44.4C175.58 44.4 170.58 39.4 170.58 33.3C170.68 27.1 175.58 22.2 181.68 22.2Z" fill="#059DFD"/>
<path d="M3.88 105.7C3.88 104.6 3.88 103.6 3.88 102.5C3.88 99.8 3.98 97 4.18 94.3C4.28 93.7 3.78 93.2 3.28 93.1C2.68 93 2.18 93.5 2.08 94C1.88 96.8 1.78 99.6 1.78 102.3C1.78 103.4 1.78 104.5 1.88 105.6C1.98 106.2 2.38 106.7 2.98 106.7C3.58 106.7 3.98 106.3 3.88 105.7Z" fill="#059DFD"/>
<path d="M189.78 73.2C190.08 73.2 190.28 73.1 190.48 72.9C192.58 70.8 193.78 67.4 193.78 63.7C193.78 60.1 192.58 56.7 190.58 54.6C190.18 54.2 189.48 54.2 189.08 54.5C188.68 54.9 188.68 55.6 188.98 56C190.58 57.7 191.58 60.6 191.58 63.6C191.58 66.7 190.58 69.6 188.88 71.4C188.48 71.8 188.48 72.5 188.88 72.9C189.28 73.1 189.48 73.2 189.78 73.2Z" fill="#059DFD"/>
<path d="M112.28 23.4H108.88C108.18 23.4 107.48 24 107.48 24.7L107.18 27.9L105.88 43.9C105.88 44.3 105.98 44.6 106.18 44.9C106.38 45.2 106.78 45.3 107.08 45.3H126.28C126.68 45.3 126.98 45.1 127.28 44.9C127.58 44.7 127.68 44.3 127.68 43.9L126.68 31.4L126.18 24.8C126.08 24.1 125.48 23.5 124.78 23.5H121.28C120.58 20.9 118.88 19.2 116.88 19.2C114.68 19.1 112.98 20.8 112.28 23.4ZM116.78 21.3C118.28 21.3 119.48 23.7 119.48 26.9C119.48 27.5 119.98 28 120.58 28C121.18 28 121.68 27.5 121.68 26.9C121.68 26.4 121.68 26 121.58 25.6H124.08L125.48 43.3H107.98L109.38 25.6H111.68C111.68 26 111.58 26.5 111.58 26.9C111.58 27.5 112.08 28 112.58 28C113.18 28 113.68 27.5 113.68 26.9C113.78 23.8 115.18 21.3 116.78 21.3Z" fill="#059DFD"/>
<path d="M125.28 68.4C125.28 68 125.28 59.2 119.38 59.1C117.88 59 116.18 59 114.28 59.1C108.68 59.3 108.18 67.9 108.18 68.3C108.18 68.4 108.18 68.4 108.18 68.4C108.18 70 111.08 70.8 116.68 70.8C122.38 70.7 125.28 70 125.28 68.4ZM114.38 61.1C116.28 61 117.88 61 119.38 61.1C122.68 61.2 123.18 66.3 123.28 67.9C122.58 68.2 120.28 68.6 116.88 68.6C113.48 68.6 111.28 68.2 110.48 67.9C110.48 66.4 111.28 61.3 114.38 61.1Z" fill="#059DFD"/>
<path d="M183.58 54.3L177.28 58.3H170.98C170.38 58.3 169.88 58.8 169.88 59.4V67.7V68.2C169.88 68.7 170.18 69 170.58 69.3C170.68 69.4 170.78 69.4 170.88 69.4H177.18L183.48 73.4C183.68 73.5 183.88 73.6 184.08 73.6C184.28 73.6 184.48 73.5 184.58 73.4C184.88 73.2 185.08 72.8 185.08 72.5V55.5C185.08 55.1 184.88 54.8 184.58 54.6C184.28 54.1 183.88 54.1 183.58 54.3ZM176.48 67.1H171.98V60.4H176.48V67.1ZM183.08 70.3L178.58 67.5V59.9L183.08 57.1V70.3Z" fill="#059DFD"/>
<path d="M113.68 103.6C114.28 103.6 114.78 103.1 114.78 102.5V96.3C115.18 96.1 115.88 95.8 116.78 96.1C117.18 96.3 117.58 96.4 118.08 96.7C119.58 97.4 121.68 98.5 124.78 97.4C125.28 97.2 125.48 96.9 125.48 96.4V89.4C125.48 89.1 125.28 88.8 125.08 88.6C124.78 88.4 124.48 88.3 124.18 88.4C122.48 88.8 120.88 88.1 119.58 87.5C118.78 87.1 117.98 86.8 117.18 86.7C116.08 86.6 115.18 86.7 114.48 87C113.48 87.4 112.78 88.4 112.78 89.5V102.6C112.58 103.1 113.08 103.6 113.68 103.6ZM114.78 89.4C114.78 89.2 114.88 89 115.08 88.9C115.38 88.8 115.98 88.6 116.88 88.7C117.28 88.8 117.88 89 118.58 89.3C119.78 89.9 121.38 90.6 123.28 90.5H123.38V95.5C121.58 95.9 120.28 95.3 119.08 94.7C118.48 94.4 117.98 94.2 117.48 94C116.98 93.8 116.48 93.8 116.08 93.8C115.58 93.8 115.28 93.9 114.88 94V89.4H114.78Z" fill="#059DFD"/>
<path d="M186.28 70.5C186.48 70.7 186.78 70.8 186.98 70.8C187.28 70.8 187.48 70.7 187.68 70.5C189.18 68.9 190.18 66.4 190.18 63.7C190.18 61 189.28 58.6 187.78 56.9C187.38 56.5 186.68 56.5 186.28 56.8C185.88 57.2 185.88 57.9 186.18 58.3C187.38 59.5 187.98 61.5 187.98 63.6C187.98 65.8 187.28 67.8 186.18 68.9C185.78 69.5 185.78 70.2 186.28 70.5Z" fill="#059DFD"/>
<path d="M113.78 35.2L115.68 37C115.98 37.3 116.28 37.4 116.58 37.4C116.88 37.4 117.28 37.2 117.58 37L121.18 33.2C121.58 32.8 121.58 32.1 121.08 31.7C120.58 31.3 119.98 31.3 119.58 31.7L116.48 34.9L115.18 33.7C114.78 33.3 114.08 33.3 113.68 33.8C113.38 34.2 113.38 34.9 113.78 35.2Z" fill="#059DFD"/>
<path d="M101.48 2.2C102.28 2.2 103.08 2.2 103.88 2.1C106.88 2.1 109.88 2.3 112.88 2.5C112.98 2.5 112.98 2.5 112.98 2.5C113.48 2.5 113.98 2.1 114.08 1.6C114.18 1 113.68 0.5 113.18 0.4C110.08 0.1 106.98 0 103.98 0C103.18 0 102.28 0 101.48 0.1C100.88 0.1 100.38 0.6 100.38 1.2C100.48 1.7 100.98 2.2 101.48 2.2Z" fill="#059DFD"/>
<path d="M167.78 63.3H167.38H160.48C159.88 63.3 159.38 63.8001 159.38 64.4001V77.3001H145.88C145.88 77.2001 145.88 77.2 145.88 77.1V40.8V35H146.08H164.68C165.28 35 165.78 34.5001 165.78 33.9001C165.78 33.3001 165.28 32.8 164.68 32.8H146.08H144.88H130.88C130.28 32.8 129.78 33.3001 129.78 33.9001C129.78 34.5001 130.28 35 130.88 35H135.78H143.78V39.4001V77.1C143.78 77.2 143.78 77.2001 143.78 77.3001H118.08V73.6C118.08 73 117.58 72.5 116.98 72.5C116.38 72.5 115.88 73 115.88 73.6V78.4001C115.88 79 116.38 79.5 116.98 79.5H159.48V94.2H136.08C135.48 94.2 134.98 94.7001 134.98 95.3001C134.98 95.9001 135.48 96.4001 136.08 96.4001H160.58H167.48C168.08 96.4001 168.58 95.9001 168.58 95.3001C168.58 94.7001 168.08 94.2 167.48 94.2H161.68V65.4001H167.88C168.18 65.4001 168.38 65.3 168.58 65.1C168.78 64.9 168.98 64.6001 168.98 64.3001C168.88 63.7001 168.38 63.3 167.78 63.3Z" fill="#059DFD"/>
<path d="M157.58 129.9C156.78 129.2 155.78 128.8 154.68 129C153.58 129.1 152.58 129.6 151.98 130.4L144.78 138.9L141.58 135.3C140.08 133.7 137.58 133.5 135.98 135C135.18 135.7 134.68 136.7 134.68 137.7C134.68 138.7 134.98 139.8 135.68 140.6L141.88 147.7C142.68 148.5 143.68 149 144.88 149H144.98C146.18 149 147.28 148.5 147.98 147.6L158.18 135.6C158.88 134.8 159.28 133.8 159.08 132.7C158.88 131.6 158.38 130.6 157.58 129.9ZM156.58 134.2L146.38 146.2C145.98 146.6 145.48 146.9 144.98 146.9H144.88C144.38 146.9 143.78 146.7 143.48 146.3L137.18 139.2C136.88 138.8 136.68 138.4 136.68 137.8C136.68 137.3 136.98 136.9 137.38 136.6C137.78 136.3 138.18 136.1 138.68 136.1C139.18 136.1 139.78 136.3 140.08 136.7L144.08 141.2C144.28 141.5 144.58 141.6 144.88 141.6C145.18 141.6 145.48 141.4 145.68 141.2L153.68 131.8C153.98 131.4 154.38 131.2 154.98 131.1C155.48 131 155.98 131.2 156.38 131.5C156.78 131.8 156.98 132.2 157.08 132.8C156.98 133.3 156.88 133.8 156.58 134.2Z" fill="#059DFD"/>
<path d="M74.48 130.7C74.38 129.6 73.88 128.6 73.08 128C71.38 126.6 68.88 126.8 67.48 128.5L60.28 137L57.08 133.4C56.38 132.6 55.38 132.1 54.38 132.1C53.28 132 52.28 132.4 51.48 133.1C49.88 134.6 49.68 137.1 51.18 138.7L57.48 145.8C58.28 146.6 59.28 147.1 60.48 147.1H60.58C61.78 147.1 62.88 146.6 63.58 145.7L73.78 133.7C74.28 132.8 74.68 131.8 74.48 130.7ZM71.98 132.3L61.78 144.3C61.48 144.7 60.98 145 60.38 145C59.88 145 59.28 144.8 58.98 144.4L52.68 137.3C51.98 136.5 52.08 135.3 52.88 134.6C53.28 134.3 53.68 134.1 54.18 134.1C54.68 134.1 55.28 134.3 55.58 134.7L59.58 139.2C59.78 139.5 60.08 139.6 60.38 139.6C60.68 139.6 60.98 139.4 61.18 139.2L69.18 129.8C69.88 129 71.08 128.9 71.88 129.6C72.28 129.9 72.48 130.3 72.58 130.9C72.48 131.4 72.28 131.9 71.98 132.3Z" fill="#059DFD"/>
<path d="M165.78 151.8V143.9V127.5C165.78 123.8 162.68 120.7 158.98 120.7H134.68C130.98 120.7 127.88 123.8 127.88 127.5V151.8C127.88 155.5 130.98 158.6 134.68 158.6H152.68H158.98C162.68 158.6 165.78 155.5 165.78 151.8ZM134.68 156.4C132.08 156.4 129.98 154.3 129.98 151.7V127.4C129.98 124.8 132.08 122.7 134.68 122.7H158.98C161.58 122.7 163.68 124.8 163.68 127.4V151.7C163.68 154.3 161.58 156.4 158.98 156.4H134.68Z" fill="#059DFD"/>
<path d="M147.68 192.5C145.18 193.7 142.58 194.8 140.08 195.8C139.58 196 139.28 196.6 139.48 197.2C139.68 197.6 140.08 197.8 140.48 197.8C140.58 197.8 140.78 197.8 140.88 197.7C143.48 196.7 146.18 195.5 148.68 194.3C149.18 194 149.38 193.4 149.18 192.9C148.88 192.4 148.18 192.2 147.68 192.5Z" fill="#059DFD"/>
<path d="M101.98 149.6C103.18 149.6 104.28 149.1 105.08 148.2L115.28 136.2C116.68 134.5 116.48 132 114.78 130.6C113.08 129.2 110.58 129.4 109.18 131.1L101.98 139.6L98.78 136C98.08 135.2 97.08 134.7 96.08 134.7C94.98 134.6 93.98 135 93.18 135.7C92.38 136.4 91.88 137.4 91.88 138.4C91.78 139.5 92.18 140.5 92.88 141.3L99.18 148.4C99.78 149.1 100.88 149.6 101.98 149.6ZM93.78 138.5C93.88 138 94.08 137.5 94.38 137.2C94.78 136.9 95.18 136.7 95.68 136.7C96.18 136.7 96.78 136.9 97.08 137.3L101.08 141.8C101.28 142.1 101.58 142.2 101.88 142.2C102.18 142.2 102.48 142 102.68 141.8L110.68 132.4C111.38 131.6 112.58 131.5 113.38 132.2C114.18 132.9 114.28 134.1 113.58 134.9L103.38 146.9C103.08 147.3 102.58 147.6 101.98 147.6V148.7V147.6C101.48 147.6 100.88 147.4 100.58 147L94.28 139.9C93.98 139.5 93.78 139 93.78 138.5Z" fill="#059DFD"/>
<path d="M167.08 180.2C164.08 182.6 160.98 184.8 157.78 186.9C157.28 187.2 157.18 187.8 157.48 188.4C157.68 188.7 157.98 188.8 158.28 188.8C158.48 188.8 158.68 188.7 158.88 188.6C162.18 186.5 165.38 184.2 168.38 181.8C168.88 181.4 168.88 180.7 168.58 180.3C168.18 179.8 167.48 179.8 167.08 180.2Z" fill="#059DFD"/>
<path d="M183.08 163.9C180.78 166.9 178.18 169.8 175.58 172.5C175.18 172.9 175.18 173.6 175.58 174C175.78 174.2 176.08 174.3 176.28 174.3C176.58 174.3 176.78 174.2 176.98 174C179.68 171.2 182.28 168.2 184.68 165.2C185.08 164.7 184.98 164.1 184.48 163.8C184.08 163.3 183.48 163.4 183.08 163.9Z" fill="#059DFD"/>
<path d="M203.38 121.8C202.78 121.7 202.28 122.1 202.08 122.6C201.28 126.3 200.38 130 199.08 133.7C198.88 134.3 199.18 134.9 199.78 135C199.88 135.1 199.98 135.1 200.08 135.1C200.48 135.1 200.88 134.8 201.08 134.4C202.28 130.7 203.28 126.9 204.08 123.1C204.38 122.4 203.98 121.9 203.38 121.8Z" fill="#059DFD"/>
<path d="M205.18 98.7C204.58 98.7 204.08 99.2 204.08 99.8C204.08 100.6 204.18 101.4 204.18 102.2C204.18 105.2 203.98 108.2 203.78 111.2C203.68 111.8 204.18 112.3 204.68 112.4C204.78 112.4 204.78 112.4 204.78 112.4C205.28 112.4 205.78 112 205.88 111.5C206.18 108.4 206.28 105.3 206.28 102.3C206.28 101.5 206.28 100.7 206.28 99.8C206.28 99.1 205.78 98.7 205.18 98.7Z" fill="#059DFD"/>
<path d="M196.28 143.7C195.78 143.4 195.08 143.7 194.88 144.2C193.28 147.7 191.48 151.1 189.48 154.3C189.18 154.8 189.38 155.5 189.88 155.8C190.08 155.9 190.28 156 190.38 156C190.78 156 191.08 155.8 191.28 155.5C193.28 152.2 195.18 148.7 196.78 145.2C197.08 144.6 196.88 144 196.28 143.7Z" fill="#059DFD"/>
<path d="M184.58 90.5999C183.38 89.7999 181.88 89.3999 180.48 89.6999C179.08 89.9999 177.88 90.7999 176.98 91.9999C175.28 94.4999 175.88 97.8999 178.38 99.5999C179.28 100.3 180.38 100.6 181.48 100.6C181.78 100.6 182.18 100.5 182.48 100.5C183.88 100.2 185.08 99.3999 185.98 98.1999C187.68 95.7999 187.08 92.2999 184.58 90.5999ZM184.28 97.0999C183.78 97.7999 183.08 98.2999 182.18 98.4999C181.28 98.6999 180.38 98.4999 179.68 97.9999C178.18 96.8999 177.68 94.8 178.88 93.3C179.38 92.6 180.08 92.1 180.98 91.9C181.18 91.8 181.38 91.8 181.58 91.8C182.28 91.8 182.88 92 183.48 92.4C184.88 93.4 185.28 95.4999 184.28 97.0999Z" fill="#059DFD"/>
<path d="M190.38 103.7L192.48 100.6C192.98 99.9 192.78 99 192.08 98.5L190.78 97.6C190.88 97.3 190.88 97.1 190.98 96.9L192.18 96.7C192.68 96.6 193.08 96.3 193.38 95.9C193.68 95.5 193.78 95 193.68 94.5L193.08 91.1C192.88 90.3 192.18 89.7 191.38 89.9L189.88 90.2C189.68 90 189.58 89.8 189.48 89.6L190.28 88.3C190.78 87.6 190.58 86.7 189.88 86.2L186.78 84C186.48 83.7 186.08 83.7 185.68 83.7C185.28 83.8 184.98 84 184.78 84.3L183.98 85.6C183.78 85.5 183.58 85.5 183.28 85.4L182.98 83.9C182.78 83.1 182.08 82.5 181.28 82.7L177.58 83.4C177.18 83.5 176.88 83.7 176.68 84C176.58 84.1 176.58 84.2 176.48 84.3C176.38 84.6 176.28 84.9 176.38 85.1L176.68 86.6C176.48 86.7 176.28 86.8 176.08 87L174.78 86.1C174.48 85.8 174.08 85.8 173.68 85.8C173.28 85.9 172.98 86.1 172.78 86.4L170.68 89.5C170.18 90.2 170.38 91.1 171.08 91.6L172.38 92.5C172.28 92.8 172.28 93 172.18 93.2L170.68 93.5C170.28 93.6 169.98 93.8 169.78 94.1C169.48 94.4 169.48 94.8 169.48 95.2L170.18 98.9C170.38 99.7 171.08 100.3 171.88 100.1L173.38 99.8C173.58 100 173.68 100.2 173.78 100.4L172.98 101.7C172.48 102.4 172.68 103.3 173.38 103.8L176.48 106C176.78 106.3 177.18 106.3 177.58 106.3C177.98 106.2 178.28 106 178.48 105.7L178.58 105.5L179.28 104.4C179.48 104.5 179.68 104.5 179.98 104.6L180.28 106.1C180.38 106.8 181.08 107.3 181.78 107.3C181.88 107.3 181.98 107.3 182.08 107.3L185.78 106.6C186.18 106.5 186.48 106.3 186.78 106C187.08 105.7 187.08 105.3 187.08 104.9L186.78 103.4C186.98 103.3 187.18 103.2 187.38 103L188.68 103.8C188.98 104.1 189.38 104.1 189.78 104.1C189.78 104.2 190.18 104 190.38 103.7ZM188.98 102L187.88 101.2C187.38 100.8 186.68 100.8 186.18 101.3C185.78 101.6 185.48 101.8 185.08 101.9C184.58 102.2 184.28 102.8 184.38 103.5L184.68 104.9L182.18 105.4L181.88 104C181.78 103.4 181.28 102.9 180.58 102.8C180.18 102.7 179.78 102.6 179.28 102.5C179.18 102.4 178.98 102.4 178.88 102.4C178.38 102.4 177.98 102.6 177.68 103L176.88 104.1L174.78 102.6L175.58 101.4C175.98 100.9 175.88 100.2 175.48 99.7C175.18 99.3 174.98 99 174.78 98.6C174.48 98 173.88 97.7 173.18 97.8L171.78 98.1L171.28 95.6L172.68 95.3C173.28 95.2 173.88 94.7 173.88 94C173.98 93.6 174.08 93.2 174.18 92.7C174.38 92.1 174.08 91.4 173.58 91.1L172.38 90.3L173.78 88.2L174.88 89C175.38 89.4 176.08 89.4 176.58 88.9C176.88 88.6 177.28 88.4 177.68 88.2C178.18 87.9 178.48 87.3 178.38 86.6L178.08 85.2L180.58 84.7L180.88 86.1C180.98 86.7 181.48 87.2 182.18 87.3C182.58 87.4 182.98 87.5 183.48 87.6C184.08 87.8 184.78 87.5 185.18 87L185.98 85.9L188.08 87.4L187.28 88.6C186.88 89.1 186.88 89.8 187.38 90.3C187.68 90.7 187.88 91 188.08 91.4C188.38 92 188.98 92.3 189.68 92.2L191.08 91.9L191.48 94.5L190.08 94.8C189.48 94.9 188.88 95.4 188.88 96.1C188.78 96.5 188.68 96.9 188.58 97.4C188.38 98 188.68 98.7 189.18 99L190.38 99.8L188.98 102Z" fill="#059DFD"/>
<path d="M26.38 165.4C24.78 163.4 23.28 161.4 21.88 159.3C21.58 158.8 20.88 158.7 20.38 159C19.88 159.3 19.78 160 20.08 160.5C21.48 162.6 23.08 164.7 24.68 166.7C25.48 167.7 26.38 168.8 27.28 169.8C27.48 170.1 27.78 170.2 28.08 170.2C28.38 170.2 28.58 170.1 28.78 169.9C29.18 169.5 29.28 168.8 28.88 168.4C28.08 167.5 27.18 166.5 26.38 165.4Z" fill="#059DFD"/>
<path d="M4.98 117.2C4.88 116.6 4.38 116.2 3.78 116.3C3.18 116.4 2.78 116.9 2.88 117.5C3.48 121.4 4.28 125.2 5.28 128.9C5.38 129.4 5.78 129.7 6.28 129.7C6.38 129.7 6.48 129.7 6.58 129.6C7.18 129.4 7.48 128.9 7.28 128.3C6.38 124.7 5.58 120.9 4.98 117.2Z" fill="#059DFD"/>
<path d="M17.68 49.5C17.18 49.2 16.48 49.3 16.28 49.9C14.28 53.2 12.48 56.7 10.88 60.3C10.68 60.8 10.98 61.4 11.48 61.7C11.68 61.8 11.78 61.8 11.88 61.8C12.28 61.8 12.68 61.6 12.78 61.2C14.38 57.7 16.08 54.3 18.08 51C18.28 50.5 18.18 49.8 17.68 49.5Z" fill="#059DFD"/>
<path d="M81.88 40.8C82.48 40.8 82.98 40.3 82.98 39.7V35.6C82.98 35 82.48 34.5 81.88 34.5C81.28 34.5 80.78 35 80.78 35.6V39.7C80.88 40.3 81.28 40.8 81.88 40.8Z" fill="#059DFD"/>
<path d="M7.97999 70.4999C7.37999 70.2999 6.77999 70.5999 6.67999 71.1999C5.47999 74.8999 4.47999 78.6999 3.77999 82.4999C3.57999 82.9999 3.97999 83.5999 4.57999 83.6999C4.67999 83.6999 4.77999 83.6999 4.77999 83.6999C5.27999 83.6999 5.67999 83.2999 5.87999 82.8999C6.57999 79.1999 7.57999 75.3999 8.67999 71.7999C8.77999 71.2999 8.57999 70.6999 7.97999 70.4999Z" fill="#059DFD"/>
<path d="M81.88 42.5C81.28 42.5 80.68 43 80.68 43.7C80.68 44.4 81.18 44.9 81.88 44.9C82.48 44.9 83.08 44.4 83.08 43.7C83.08 43 82.58 42.5 81.88 42.5Z" fill="#059DFD"/>
<path d="M10.88 139.3C10.68 138.8 10.08 138.5 9.48 138.7C8.98 138.9 8.68 139.5 8.88 140.1C10.38 143.6 11.98 147.2 13.88 150.7C14.08 151.1 14.48 151.3 14.78 151.3C14.98 151.3 15.08 151.2 15.28 151.2C15.78 150.9 15.98 150.3 15.68 149.8C13.98 146.3 12.28 142.8 10.88 139.3Z" fill="#059DFD"/>
<path d="M126.08 158.7L123.98 155.9V127.4C123.98 123.7 120.88 120.6 117.18 120.6H92.78C89.08 120.6 85.98 123.7 85.98 127.4V152.8C85.98 153.4 86.48 153.9 87.08 153.9C87.68 153.9 88.08 153.5 88.18 153C88.18 152.9 88.18 152.9 88.18 152.9V127.5C88.18 124.9 90.28 122.8 92.88 122.8H117.18C119.78 122.8 121.88 124.9 121.88 127.5V153.5L116.58 146.9C114.38 144.3 110.48 143.8 107.88 145.9C106.58 146.9 105.78 148.4 105.58 150C105.48 150.2 105.48 150.4 105.48 150.6C103.38 149.8 100.98 150 99.18 151.4C98.38 152.1 97.68 152.9 97.38 153.8C97.18 154.4 96.98 155 96.98 155.5C96.88 155.7 96.88 155.9 96.88 156.1C94.78 155.3 92.38 155.5 90.58 156.9C89.38 157.9 88.58 159.2 88.38 160.6L82.08 152.8V127.3C82.08 123.6 78.98 120.5 75.28 120.5H50.88C47.18 120.5 44.08 123.6 44.08 127.3V146V151.6C44.08 155.3 47.18 158.4 50.88 158.4H55.48H67.18C67.78 158.4 68.28 157.9 68.28 157.3V157.2C68.18 156.6 67.78 156.2 67.18 156.2H50.88C48.28 156.2 46.18 154.1 46.18 151.5V127.2C46.18 124.6 48.28 122.5 50.88 122.5H75.18C77.78 122.5 79.88 124.6 79.88 127.2V150.1L77.48 147.1C75.28 144.5 71.38 144 68.78 146.1C67.48 147.1 66.68 148.6 66.48 150.2C66.28 151.8 66.78 153.5 67.88 154.7L69.68 156.9L82.88 173.6L87.68 179.5L78.28 174.9C75.18 173.4 71.48 174.6 69.98 177.7C69.28 179.2 69.18 180.9 69.68 182.4C70.18 183.9 71.28 185.2 72.78 185.9C73.98 186.7 88.08 196.3 100.78 199.4C102.68 199.9 104.68 200.1 106.58 200.1C107.38 200.1 108.18 200 108.98 200C113.88 199.5 118.48 197.6 122.38 194.6C127.68 190.4 130.98 184.4 131.68 177.7C131.88 175.6 131.88 173.6 131.58 171.6C130.88 166.8 129.08 162.4 126.08 158.7ZM129.48 177.2C128.78 183.4 125.78 188.9 120.98 192.7C117.48 195.5 113.18 197.2 108.68 197.7C106.18 198 103.58 197.8 101.08 197.2C88.48 194.1 73.88 184.1 73.78 184C73.68 184 73.68 183.9 73.58 183.9C72.68 183.4 71.88 182.6 71.48 181.5C71.18 180.5 71.18 179.4 71.68 178.4C72.68 176.4 75.18 175.6 77.18 176.6L90.88 183.4C91.18 183.6 91.38 183.6 91.78 183.5C92.18 183.3 92.48 183 92.48 182.5C92.48 182.2 92.38 182 92.18 181.8C91.78 181.4 69.38 153.7 69.38 153.7C68.68 152.9 68.38 151.7 68.48 150.7C68.58 149.7 69.08 148.7 69.98 148C71.68 146.6 74.28 146.9 75.78 148.6L89.48 165.5C89.48 165.6 89.48 165.6 89.48 165.6L91.08 167.6C91.48 168.1 92.08 168.1 92.58 167.8C93.08 167.4 93.08 166.8 92.78 166.3L91.18 164.3C90.58 163.5 90.28 162.4 90.38 161.3C90.48 160.2 90.98 159.3 91.88 158.6C93.58 157.2 96.18 157.5 97.68 159.2L98.28 159.9L99.88 161.9C100.08 162.1 100.38 162.3 100.68 162.3C100.98 162.3 101.18 162.2 101.38 162.1C101.88 161.7 101.88 161.1 101.58 160.6L100.08 158.7C99.38 157.9 99.08 156.7 99.18 155.7C99.28 154.6 99.78 153.7 100.68 153C102.38 151.6 104.98 151.9 106.48 153.6L107.08 154.4L107.98 155.5C108.18 155.7 108.48 155.9 108.78 155.9C109.08 155.9 109.28 155.8 109.48 155.7C109.98 155.3 109.98 154.7 109.68 154.2L108.78 153.1C108.08 152.3 107.78 151.1 107.88 150.1C107.98 149 108.48 148.1 109.38 147.4C111.08 146 113.68 146.3 115.18 148L124.88 159.9C128.38 165 130.18 171 129.48 177.2Z" fill="#059DFD"/>
<path d="M91.48 39.7C91.48 34.4 87.18 30.1 81.88 30.1C80.98 30.1 79.98 30.3 79.18 30.5C76.98 28.7 74.28 27.7 71.38 27.7C64.68 27.7 59.28 33.0999 59.28 39.7999V50.7L55.88 57.2999C55.68 57.6999 55.68 58 55.98 58.4C56.18 58.7 56.48 58.9 56.88 58.9H64.98C65.48 62.2 68.28 64.6999 71.78 64.6999C75.28 64.6999 77.98 62.2 78.58 58.9H86.68C87.08 58.9 87.38 58.7 87.58 58.4C87.78 58.1 87.78 57.6999 87.58 57.2999L83.78 50.7V49.2C87.98 48.4 91.48 44.4 91.48 39.7ZM71.58 62.5999C69.38 62.5999 67.48 61 66.98 58.9H76.18C75.68 61 73.78 62.5999 71.58 62.5999ZM84.58 56.7999H58.48L61.18 51.5C61.28 51.2999 61.28 51.2 61.28 51V39.7999C61.28 34.2999 65.78 29.7999 71.38 29.7999C73.48 29.7999 75.38 30.4 76.98 31.5C74.18 33.2 72.28 36.2 72.28 39.7C72.28 44.8 76.28 49 81.38 49.2V51C81.38 51.2 81.48 51.4 81.58 51.5L84.58 56.7999ZM81.88 47.2C77.78 47.2 74.38 43.8 74.38 39.7C74.38 35.6 77.78 32.2 81.88 32.2C86.08 32.2 89.38 35.5 89.38 39.7C89.38 43.8 85.98 47.2 81.88 47.2Z" fill="#059DFD"/>
<path d="M36.88 176.6C36.48 176.2 35.78 176.2 35.38 176.7C34.98 177.2 34.98 177.8 35.48 178.2C38.38 180.8 41.48 183.3 44.58 185.5C44.78 185.7 44.98 185.7 45.18 185.7C45.48 185.7 45.78 185.5 45.98 185.3C46.28 184.8 46.18 184.2 45.68 183.8C42.68 181.6 39.68 179.2 36.88 176.6Z" fill="#059DFD"/>
<path d="M65.78 194.9C62.28 193.5 58.78 191.8 55.48 189.9C54.98 189.6 54.28 189.8 54.08 190.3C53.78 190.8 53.98 191.5 54.48 191.7C57.88 193.6 61.48 195.3 65.08 196.8C65.18 196.9 65.38 196.9 65.48 196.9C65.88 196.9 66.28 196.6 66.48 196.3C66.58 195.7 66.38 195.1 65.78 194.9Z" fill="#059DFD"/>
<path d="M32.58 16.7999H30.48V7.89995C30.48 3.69995 34.58 0.199951 39.58 0.199951H52.28C57.28 0.199951 61.38 3.59995 61.38 7.89995V16.7H59.28V7.89995C59.28 4.79995 56.18 2.29995 52.28 2.29995H39.48C35.68 2.29995 32.48 4.79995 32.48 7.89995V16.7999H32.58Z" fill="#059DFD"/>
<path d="M52.28 115H39.48C34.48 115 30.38 111.6 30.38 107.3V98.5H32.48V107.3C32.48 110.4 35.58 112.9 39.48 112.9H52.18C55.98 112.9 59.18 110.4 59.18 107.3V98.5H61.28V107.3C61.28 111.6 57.28 115 52.28 115Z" fill="#059DFD"/>
<path d="M59.28 57.4V83.3C59.28 86.3 56.88 88.7 53.88 88.7H37.98C34.98 88.7 32.58 86.3 32.58 83.3V32C32.58 29 34.98 26.6 37.98 26.6H53.78C56.78 26.6 59.18 29 59.18 32V52.6C59.38 52.4 59.68 52.1 59.98 52C60.98 47 60.28 42.4 60.18 37.3C60.18 36.2 60.58 35.4 61.18 34.8V32C61.18 27.9 57.78 24.5 53.68 24.5H37.98C33.88 24.5 30.48 27.9 30.48 32V83.3C30.48 87.4 33.88 90.8 37.98 90.8H53.78C57.88 90.8 61.28 87.4 61.28 83.3V58.3C60.38 58.2 59.78 57.9 59.28 57.4Z" fill="#059DFD"/>
<path d="M66.28 59.9V89.9C66.28 94.6 62.48 98.5 57.68 98.5H34.08C29.38 98.5 25.48 94.7 25.48 89.9V25.4C25.48 20.7 29.28 16.8 34.08 16.8H57.58C62.28 16.8 66.18 20.6 66.18 25.4V29.2C66.58 29 67.18 28.8 67.78 28.8C67.98 28.8 68.08 28.8 68.28 28.8V25.4C68.28 19.5 63.48 14.7 57.58 14.7H34.08C28.18 14.7 23.38 19.5 23.38 25.4V89.9C23.38 95.8 28.18 100.6 34.08 100.6H57.58C63.48 100.6 68.28 95.8 68.28 89.9V62.5C67.08 62.0999 66.38 61 66.28 59.9Z" fill="#059DFD"/>
</g>
<defs>
<clipPath id="clip0">
<rect width="206" height="200" fill="white" transform="translate(0.880005)"/>
</clipPath>
</defs>
</svg>
