<svg width="202" height="200" viewBox="0 0 202 200" fill="none" xmlns="http://www.w3.org/2000/svg">
<g clip-path="url(#clip0)">
<path d="M116.18 32.7C116.28 33.2 116.68 33.5 117.18 33.5C117.68 33.5 118.08 33.2 118.18 32.8L119.28 29.2L120.38 32.8C120.58 33.3 120.88 33.5 121.38 33.5C121.88 33.5 122.28 33.2 122.38 32.7L124.08 25.8C124.28 25.2 123.88 24.7 123.38 24.6C122.78 24.4 122.28 24.8 122.18 25.3L121.38 28.6L120.38 25.3C120.18 24.9 119.88 24.6 119.38 24.6C118.88 24.6 118.48 24.9 118.38 25.3L117.38 28.6L116.58 25.3C116.38 24.7 115.88 24.4 115.38 24.6C114.78 24.8 114.48 25.3 114.68 25.8L116.18 32.7Z" fill="#059DFD"/>
<path d="M94.58 33.5H97.68C97.98 33.5 98.28 33.5001 98.48 33.4001C100.38 33.1001 101.88 31.7 102.48 29.9C102.68 29.3 102.78 28.7 102.78 28C102.78 26.5 102.28 25.1 101.38 24C100.58 23 99.28 22.3 97.98 22.3H94.48C93.88 22.3 93.48 22.8 93.48 23.3V32.3C93.58 33.1 93.98 33.5 94.58 33.5ZM95.58 24.5H97.98C98.68 24.5 99.38 24.8 99.78 25.3C100.38 26 100.68 27 100.68 28C100.68 28.4 100.58 28.9 100.48 29.3C100.08 30.4 99.28 31.2 98.08 31.4C97.88 31.5 97.68 31.5 97.58 31.5H95.48V24.5H95.58Z" fill="#059DFD"/>
<path d="M68.38 7.80003C68.48 7.80003 68.68 7.80003 68.78 7.70003C72.28 6.50003 75.98 5.40003 79.58 4.50003C80.18 4.40003 80.48 3.80003 80.38 3.30003C80.18 2.70003 79.68 2.40003 79.18 2.50003C75.48 3.40003 71.78 4.50003 68.18 5.70003C67.68 5.90003 67.38 6.50003 67.58 7.10003C67.48 7.60003 67.88 7.80003 68.38 7.80003Z" fill="#059DFD"/>
<path d="M84.48 42.8H124.28L124.08 74.7C124.08 75.4 124.08 75.9 124.08 76.5C123.18 75 121.88 72.5 120.58 68.3C119.58 65 117.28 61.9 113.68 63C110.78 63.8 109.98 66.4 110.38 68.6C110.38 68.6 110.88 71.1 111.38 73.4C111.68 74.8 111.98 76 112.18 77.1C113.78 84.3 114.58 88.2 122.28 98.8C122.98 99.8 124.28 102.1 124.68 105.5C124.88 106.9 124.88 109.3 124.88 109.3C124.88 109.8 125.38 110.3 125.88 110.3C125.98 110.3 125.98 110.3 125.98 110.3C126.48 110.3 126.98 109.8 126.98 109.3C126.98 109.2 126.98 109.2 126.98 109.2C126.98 109.1 126.88 106.7 126.78 105.2C126.38 101.3 124.88 98.7 123.98 97.5C116.58 87.2 115.78 83.4 114.28 76.5C113.98 75.4 113.78 74.1 113.48 72.7C112.98 70.5 112.48 68 112.48 68C112.38 67.4 112.18 65.5 114.38 64.8C116.98 64 118.28 67.6 118.68 68.7C121.48 77.8 124.38 79.6 124.68 79.8C124.98 80 125.38 80 125.68 79.8C125.98 79.6 126.18 79.3 126.18 78.9L126.38 42.6C126.38 41.2 126.58 40.2 126.98 39.4C127.58 38.4 128.38 37.9 129.68 37.9C129.78 37.9 129.78 37.9 129.78 37.9C132.58 38 133.08 40.4 133.08 42.4L132.98 63.7C132.98 64.3 133.48 64.7 133.98 64.7C134.58 64.7 134.98 64.2 134.98 63.7C134.98 62.5 135.48 61.2 136.38 60.5C137.08 60 137.88 59.7 138.68 59.9C140.88 60.3 141.58 61.9 141.58 63.4V65.4C141.58 66 142.08 66.4 142.58 66.4C143.18 66.4 143.58 65.9 143.58 65.4V64.1C143.58 63.6 143.78 63.1 144.18 62.7C144.88 62 146.08 61.8 146.88 61.8C148.88 62 150.18 63.3 150.18 65.2V66.3V67.1V68C150.18 68.6 150.68 69 151.18 69C151.78 69 152.18 68.5 152.18 68C152.18 67.1 152.48 66.2 153.08 65.7C153.68 65.1 154.58 64.8 155.68 64.9C157.58 65 158.28 66.7 158.28 68.2V71C158.28 74.3 157.98 80.6 157.48 83.4C155.78 92.2 153.18 95.8 151.38 98.4C149.58 100.9 149.38 103.9 149.18 106.7L149.08 107.1C148.98 107.6 148.98 109 148.98 109.2C148.98 109.8 149.48 110.2 149.98 110.2C150.58 110.2 150.98 109.7 150.98 109.2C150.98 108.6 151.08 107.5 151.08 107.2L151.18 106.8C151.38 104.1 151.58 101.5 153.08 99.5C155.58 96 157.98 92.2 159.58 83.6C160.18 80.5 160.48 73.8 160.48 70.9V68C160.48 64.9 158.68 62.7 155.88 62.6C154.38 62.5 153.08 62.9 152.18 63.6C151.58 61.3 149.68 59.8 147.08 59.5C145.98 59.4 144.28 59.8 143.08 60.6C142.38 58.9 140.88 57.8 138.88 57.5C137.38 57.2 135.98 57.6 134.88 58.6L134.78 58.7L134.88 42.3H145.98H175.48C177.28 42.3 178.78 40.8 178.78 39V16.4C178.78 14.6 177.28 13.1 175.48 13.1H84.68C82.88 13.1 81.38 14.6 81.38 16.4V30.2V39.3C81.38 41.1 82.88 42.6 84.48 42.8ZM83.48 16.4C83.48 15.8 83.98 15.3 84.58 15.2H175.78C176.48 15.2 176.98 15.8 176.98 16.4V39.3C176.98 40 176.38 40.5 175.78 40.5H135.08C134.58 37.5 132.68 35.8 129.88 35.8C129.78 35.8 129.78 35.8 129.78 35.8C127.68 35.8 126.18 36.7 125.28 38.3C124.88 38.9 124.68 39.6 124.58 40.4H84.68C83.98 40.4 83.48 39.8 83.48 39.2V16.4Z" fill="#059DFD"/>
<path d="M108.88 33.5C111.08 33.5 112.88 31.5 112.88 29.1C112.88 26.7 111.08 24.7 108.88 24.7C106.68 24.7 104.78 26.7 104.88 29.1C104.88 31.5 106.68 33.5 108.88 33.5ZM108.78 26.7999C109.78 26.7999 110.68 27.8 110.68 29.1C110.68 30.4 109.88 31.4 108.78 31.4C107.78 31.4 106.88 30.4 106.88 29.1C106.88 27.8 107.78 26.7999 108.78 26.7999Z" fill="#059DFD"/>
<path d="M200.58 97.3C201.18 97.3 201.68 96.8 201.58 96.2C201.38 92.4 201.08 88.5 200.48 84.8C200.38 84.2 199.88 83.8 199.38 83.9C198.78 84 198.48 84.5 198.48 85.1C199.08 88.8 199.38 92.6 199.48 96.3C199.48 96.9 199.98 97.3 200.58 97.3Z" fill="#059DFD"/>
<path d="M187.68 53.3C187.88 53.7 188.18 53.8 188.58 53.8C188.78 53.8 188.98 53.7 189.08 53.7C189.58 53.4 189.78 52.8 189.48 52.3C187.68 49 185.68 45.6 183.38 42.5C183.08 42 182.38 41.9 181.88 42.2C181.38 42.5 181.28 43.2 181.58 43.7C183.98 46.8 185.88 50 187.68 53.3Z" fill="#059DFD"/>
<path d="M162.18 33.4001C162.88 33.4001 163.58 33.2001 164.08 32.9001C164.28 33.3001 164.58 33.5 164.98 33.5C165.58 33.5 165.98 33 165.98 32.5V21.8C165.98 21.2 165.48 20.8 164.98 20.8C164.38 20.8 163.98 21.3 163.98 21.8V25C163.38 24.7 162.78 24.5 162.08 24.5C159.98 24.5 158.38 26.4 158.38 28.9C158.38 31.5 159.98 33.4001 162.18 33.4001ZM162.18 26.7001C163.88 26.7001 164.08 28.3 164.08 29C164.08 29.7 163.88 31.3 162.18 31.3C161.28 31.3 160.48 30.3 160.48 29C160.48 27.7 161.18 26.7001 162.18 26.7001Z" fill="#059DFD"/>
<path d="M90.48 2.69995C90.58 2.69995 90.58 2.69995 90.58 2.69995C94.18 2.29995 97.88 2.09995 101.58 2.09995H101.78C102.38 2.09995 102.78 1.59995 102.78 1.09995C102.78 0.599946 102.28 0.0999463 101.78 0.0999463H101.58C97.88 -5.37112e-05 94.08 0.199946 90.38 0.599946C89.78 0.699946 89.38 1.19995 89.48 1.69995C89.48 2.29995 89.98 2.69995 90.48 2.69995Z" fill="#059DFD"/>
<path d="M47.98 17.9001C48.18 17.9001 48.38 17.8001 48.58 17.7001C51.68 15.7001 54.98 13.8001 58.38 12.1001C58.88 11.8001 59.08 11.2001 58.88 10.7001C58.58 10.2001 57.98 10.0001 57.48 10.2001C54.08 11.9001 50.68 13.8001 47.48 15.9001C46.98 16.2001 46.88 16.9001 47.18 17.4001C47.28 17.7001 47.68 17.9001 47.98 17.9001Z" fill="#059DFD"/>
<path d="M127.48 33.5C128.08 33.5 128.48 33 128.48 32.5V27.3C128.68 27 129.08 26.8 129.58 26.8C130.18 26.8 130.88 27.1 130.88 28.6V32.6C130.88 33.2 131.38 33.6 131.88 33.6C132.48 33.6 132.88 33.1 132.88 32.6V28.6C132.88 25.9 131.18 24.8 129.48 24.8C128.88 24.8 128.38 25.0001 127.88 25.2001C127.68 25.1001 127.48 25 127.28 25C126.68 25 126.28 25.5 126.28 26V32.6C126.38 33.1 126.88 33.5 127.48 33.5Z" fill="#059DFD"/>
<path d="M136.58 33.5C137.18 33.5 137.58 33 137.58 32.5V21.8C137.58 21.2 137.08 20.8 136.58 20.8C135.98 20.8 135.58 21.3 135.58 21.8V32.5C135.48 33.1 135.98 33.5 136.58 33.5Z" fill="#059DFD"/>
<path d="M143.38 33.5C145.58 33.5 147.38 31.5 147.38 29.1C147.38 26.7 145.58 24.7 143.38 24.7C141.18 24.7 139.38 26.7 139.38 29.1C139.38 31.5 141.08 33.5 143.38 33.5ZM143.38 26.7999C144.38 26.7999 145.28 27.8 145.28 29.1C145.28 30.4 144.48 31.4 143.38 31.4C142.38 31.4 141.48 30.4 141.48 29.1C141.38 27.8 142.28 26.7999 143.38 26.7999Z" fill="#059DFD"/>
<path d="M150.48 28.4C149.98 28.8 149.48 29.6 149.58 31.1C149.68 32.5 150.68 33.4 152.28 33.4H152.38C152.98 33.4 153.58 33.2 154.18 33C154.38 33.3 154.68 33.6 155.08 33.6H155.18C155.78 33.6 156.18 33.2 156.18 32.6C156.38 30.6 156.38 27.1 155.68 26.1C154.48 24.2 151.98 24.7 150.78 25.3C150.28 25.5 149.98 26.1 150.28 26.7C150.48 27.2 151.08 27.5 151.68 27.2C151.68 27.2 153.48 26.4 153.98 27.3C154.08 27.4 154.08 27.5 154.08 27.7C152.78 27.4 151.38 27.5 150.48 28.4ZM154.58 29.7C154.28 29.9 154.08 30.1 153.98 30.5C153.88 30.8 152.78 31.4 151.98 31.3C151.68 31.2 151.58 31.1 151.58 30.8C151.48 30.2 151.78 30 151.88 29.9C152.18 29.6 152.78 29.5 153.38 29.5C153.78 29.6 154.28 29.6 154.58 29.7Z" fill="#059DFD"/>
<path d="M173.18 141.7C172.68 137.1 170.98 132.8 168.28 129.3C163.58 123.2 156.28 119.3 148.28 119.3C137.28 119.3 127.68 126.4 124.38 136.7C122.88 136 121.18 135.7 119.58 135.7C113.58 135.7 108.58 140.3 108.08 146.2C107.78 146.2 107.48 146.2 107.28 146.2C98.28 146.2 90.88 153.5 90.88 162.6C90.88 166.2 92.08 169.6 94.08 172.3C97.08 176.4 101.88 179 107.28 179H113.48C114.08 179 114.48 178.5 114.48 178C114.48 177.4 113.98 177 113.48 177H107.58C99.78 177 93.18 170.9 92.98 163.1C92.68 155 99.28 148.3 107.28 148.3C107.78 148.3 108.38 148.4 108.98 148.4C109.28 148.5 109.58 148.3 109.78 148.1C110.08 147.9 110.18 147.6 110.18 147.3V147.2C110.18 142 114.48 137.7 119.68 137.7C121.38 137.7 123.08 138.2 124.58 139.1C124.88 139.3 125.18 139.3 125.48 139.2C125.78 139.1 125.98 138.8 126.08 138.5C128.78 128.4 137.88 121.3 148.28 121.3C160.28 121.3 170.38 130.7 171.18 142.7C171.28 143.2 171.68 143.6 172.18 143.7C181.08 144.1 187.98 151.4 187.98 160.3C187.98 169.4 180.18 176.9 171.08 176.9H168.58C167.98 176.9 167.58 177.4 167.58 177.9C167.58 178.5 168.08 178.9 168.58 178.9H171.08C181.28 178.9 189.88 170.8 190.08 160.6C190.28 150.8 182.88 142.6 173.18 141.7Z" fill="#059DFD"/>
<path d="M123.88 195.4C120.28 196.2 116.48 196.9 112.78 197.3C112.18 197.4 111.78 197.9 111.88 198.4C111.98 198.9 112.38 199.3 112.88 199.3C112.98 199.3 112.98 199.3 112.98 199.3C116.78 198.9 120.58 198.2 124.28 197.4C124.88 197.2 125.18 196.7 125.08 196.1C124.98 195.6 124.38 195.3 123.88 195.4Z" fill="#059DFD"/>
<path d="M77.38 48.7H50.18H34.98C30.58 48.7 26.98 52.2999 26.98 56.7999V60.9V138.3V144.7C26.98 149.1 30.58 152.7 34.98 152.8H51.58H77.28C81.68 152.8 85.28 149.2 85.28 144.7V138.3V60.9V56.7999C85.38 52.2999 81.78 48.7 77.38 48.7ZM29.08 61.9H83.38V137.2H29.08V61.9ZM83.38 144.6C83.38 147.9 80.68 150.6 77.38 150.6H35.08C31.78 150.6 29.08 147.9 29.08 144.6V139.2H83.38V144.6ZM83.38 59.7999H29.08V56.7C29.08 53.4 31.78 50.7 34.98 50.7H77.38C80.68 50.7 83.38 53.4 83.38 56.7V59.7999Z" fill="#059DFD"/>
<path d="M101.48 197.9C98.18 197.9 94.78 197.7 91.58 197.4C91.18 197.3 90.68 197.3 90.28 197.2C89.68 197.1 89.18 197.6 89.18 198.1C89.08 198.7 89.58 199.2 90.08 199.2C90.58 199.3 90.98 199.3 91.48 199.4C94.88 199.8 98.28 199.9 101.58 200C102.18 200 102.58 199.5 102.58 199C102.58 198.4 102.08 197.9 101.48 197.9Z" fill="#059DFD"/>
<path d="M49.78 145.6H66.28C66.88 145.6 67.28 145.1 67.28 144.6C67.28 144 66.78 143.6 66.28 143.6H49.78C49.18 143.6 48.78 144.1 48.78 144.6C48.68 145.1 49.18 145.6 49.78 145.6Z" fill="#059DFD"/>
<path d="M200.38 106.6C199.78 106.5 199.28 107 199.28 107.5C199.18 108.3 199.08 109.2 199.08 110C198.78 112.9 198.38 115.8 197.78 118.7C197.68 119.3 198.08 119.8 198.58 119.9C198.68 119.9 198.78 119.9 198.78 119.9C199.28 119.9 199.68 119.5 199.78 119.1C200.38 116.2 200.78 113.2 201.08 110.3C201.18 109.5 201.28 108.6 201.28 107.8C201.48 107.2 200.98 106.7 200.38 106.6Z" fill="#059DFD"/>
<path d="M198.08 73.5C197.08 69.8 195.88 66.2 194.38 62.6C194.18 62.1 193.58 61.8 192.98 62C192.48 62.2 192.18 62.8 192.38 63.4C193.78 66.9 195.08 70.5 195.98 74.1C196.08 74.6 196.48 74.9 196.98 74.9C197.08 74.9 197.18 74.9 197.28 74.8C197.98 74.7 198.28 74.1 198.08 73.5Z" fill="#059DFD"/>
<path d="M155.48 168.3H149.18V150.2C149.18 149.6 148.68 149.2 148.18 149.2H132.88C132.28 149.2 131.88 149.7 131.88 150.2V168.3H125.58C124.98 168.3 124.38 168.6 124.08 169.2C123.88 169.7 123.88 170.3 124.28 170.8L129.88 177.9L139.48 190C139.78 190.3 140.08 190.5 140.48 190.5C140.88 190.5 141.28 190.3 141.48 190L151.08 177.9L156.68 170.8C157.08 170.3 157.08 169.7 156.88 169.2C156.68 168.7 156.08 168.3 155.48 168.3ZM140.38 188L126.38 170.4H131.98C132.98 170.4 133.88 169.6 133.88 168.6V151.2H147.08V168.6C147.08 169.6 147.88 170.4 148.98 170.4H154.48L140.38 188Z" fill="#059DFD"/>
<path d="M196.28 129C195.78 128.8 195.18 129.1 194.98 129.7C193.88 133.3 192.48 136.8 190.98 140.2C190.68 140.8 190.98 141.4 191.48 141.6C191.68 141.7 191.78 141.7 191.88 141.7C192.28 141.7 192.68 141.5 192.78 141.1C194.38 137.6 195.78 134 196.88 130.3C197.18 129.7 196.88 129.1 196.28 129Z" fill="#059DFD"/>
<path d="M2.98001 106.8C2.38001 106.9 1.98001 107.3 2.08001 107.9C2.38001 111.7 2.88001 115.5 3.68001 119.3C3.68001 119.8 4.18001 120.1 4.58001 120.1C4.68001 120.1 4.78001 120.1 4.78001 120.1C5.38001 120 5.68001 119.4 5.58001 118.9C4.88001 115.2 4.38001 111.5 4.08001 107.7C4.08001 107.1 3.48001 106.7 2.98001 106.8Z" fill="#059DFD"/>
<path d="M7.18001 74.2C8.18001 70.6 9.38001 67 10.78 63.5C10.98 63 10.68 62.4 10.18 62.1C9.68001 62 9.08001 62.3 8.88001 62.8C7.48001 66.3 6.18001 70 5.28001 73.7C5.08001 74.2 5.48001 74.8 5.98001 74.9C6.08001 74.9 6.18001 75 6.28001 75C6.68001 75 7.08001 74.7 7.18001 74.2Z" fill="#059DFD"/>
<path d="M8.37999 129.7C8.17999 129.1 7.57999 128.9 7.07999 129C6.47999 129.2 6.27999 129.8 6.37999 130.3C7.47999 133.9 8.87999 137.5 10.58 141C10.78 141.4 11.18 141.6 11.48 141.6C11.68 141.6 11.78 141.5 11.88 141.5C12.38 141.2 12.68 140.7 12.38 140.1C10.88 136.8 9.57999 133.3 8.37999 129.7Z" fill="#059DFD"/>
<path d="M3.88 96.4001C3.98 94.2001 4.18 92.0001 4.38 89.9001C4.58 88.3001 4.78 86.8001 4.98 85.2001C5.08 84.6001 4.68 84.1001 4.08 84.0001C3.48 83.9001 2.98 84.3001 2.88 84.9001C2.58 86.5001 2.38 88.1001 2.28 89.7001C2.08 91.9001 1.88 94.2001 1.78 96.4001C1.78 97.0001 2.18 97.4001 2.78 97.4001C3.38 97.4001 3.78 97.0001 3.88 96.4001Z" fill="#059DFD"/>
<path d="M58.08 187.6C54.78 185.9 51.38 184.1 48.28 182C47.78 181.7 47.18 181.8 46.78 182.3C46.48 182.8 46.58 183.4 47.08 183.8C50.28 185.9 53.58 187.8 57.08 189.5C57.28 189.6 57.38 189.6 57.58 189.6C57.98 189.6 58.28 189.4 58.48 189C58.78 188.5 58.58 187.9 58.08 187.6Z" fill="#059DFD"/>
<path d="M79.18 195.3C75.58 194.4 71.88 193.4 68.38 192.1C67.88 191.9 67.28 192.2 66.98 192.7C66.78 193.2 67.08 193.8 67.58 194.1C71.18 195.4 74.88 196.5 78.58 197.4C78.78 197.4 78.88 197.4 78.88 197.4C79.38 197.4 79.78 197.1 79.88 196.6C80.08 196 79.68 195.5 79.18 195.3Z" fill="#059DFD"/>
<path d="M30.98 167.7C30.58 167.3 29.98 167.3 29.48 167.6C29.08 168 29.08 168.6 29.38 169.1C32.08 171.9 34.88 174.5 37.78 176.9C37.98 177.1 38.18 177.2 38.48 177.2C38.78 177.2 39.08 177.1 39.28 176.8C39.68 176.4 39.58 175.7 39.08 175.3C36.38 173 33.58 170.4 30.98 167.7Z" fill="#059DFD"/>
<path d="M30.48 32.2999C30.78 32.2999 30.98 32.1999 31.18 31.9999C32.78 30.2999 34.58 28.6999 36.28 27.0999C37.28 26.1999 38.38 25.2999 39.48 24.3999C39.98 23.9999 39.98 23.3999 39.68 22.8999C39.28 22.4999 38.68 22.3999 38.18 22.6999C37.08 23.5999 35.98 24.4999 34.98 25.4999C33.18 27.0999 31.38 28.7999 29.78 30.4999C29.38 30.8999 29.38 31.5999 29.88 31.9999C29.98 32.1999 30.18 32.2999 30.48 32.2999Z" fill="#059DFD"/>
<path d="M63.68 79.4H61.58V72.7C61.58 71.3 60.38 70.1 58.98 70.1H53.28C51.88 70.1 50.68 71.3 50.68 72.7V79.4H48.58V72.7C48.58 70.1 50.68 68.1 53.18 68.1H58.88C61.48 68.1 63.48 70.2 63.48 72.7V79.4H63.68Z" fill="#059DFD"/>
<path d="M59.08 131.4H53.38C50.78 131.4 48.78 129.3 48.78 126.8V120H50.88V126.8C50.88 128.2 52.08 129.4 53.48 129.4H59.18C60.58 129.4 61.78 128.2 61.78 126.8V120H63.88V126.8C63.68 129.3 61.58 131.4 59.08 131.4Z" fill="#059DFD"/>
<path d="M56.18 118.2C52.08 118.2 48.68 114.8 48.68 110.7V88.7C48.68 84.6 52.08 81.2 56.18 81.2C60.28 81.2 63.68 84.6 63.68 88.7V110.8C63.68 114.9 60.38 118.2 56.18 118.2ZM56.18 83.2C53.18 83.2 50.78 85.6 50.78 88.6V110.7C50.78 113.7 53.18 116.1 56.18 116.1C59.18 116.1 61.58 113.7 61.58 110.7V88.7C61.68 85.7 59.18 83.2 56.18 83.2Z" fill="#059DFD"/>
<path d="M56.18 123.5C50.28 123.5 45.48 118.7 45.48 112.8V86.4999C45.48 80.5999 50.28 75.7999 56.18 75.7999C62.08 75.7999 66.88 80.5999 66.88 86.4999V112.9C66.88 118.8 62.08 123.5 56.18 123.5ZM56.18 77.8999C51.48 77.8999 47.58 81.6999 47.58 86.4999V112.9C47.58 117.6 51.38 121.5 56.18 121.5C60.98 121.5 64.78 117.7 64.78 112.9V86.4999C64.78 81.7999 60.88 77.8999 56.18 77.8999Z" fill="#059DFD"/>
</g>
<defs>
<clipPath id="clip0">
<rect width="201" height="200" fill="white" transform="translate(0.880005)"/>
</clipPath>
</defs>
</svg>
