<svg width="50" height="50" viewBox="0 0 50 50" fill="none" xmlns="http://www.w3.org/2000/svg">
<path d="M32.9004 27.5586C36.5039 25.1367 38.1152 22.2168 38.9746 20.1953C39.6973 18.4961 40.0976 16.6797 40.1074 14.834C40.1074 14.8242 40.1074 14.8145 40.1074 14.7949V12.8223C40.1074 12.6563 40.0879 12.4903 40.039 12.334C40.2441 11.5528 39.9512 10.7032 39.248 10.2344C34.834 7.24612 30.5664 5.01956 26.2305 3.42776C26.6308 3.05667 26.875 2.52932 26.8555 1.94339C26.8262 0.937527 26.0156 0.107449 25.0098 0.0488551C23.8867 -0.00973868 22.959 0.888699 22.959 1.99221C22.959 2.54886 23.1933 3.05667 23.5742 3.40823C18.7109 5.12698 14.3652 7.43167 10.6543 10.2832C10.0195 10.7715 9.76562 11.5821 9.95117 12.3242C9.9121 12.4805 9.89257 12.6367 9.89257 12.8028V14.7754C9.89257 15.9278 10.0195 17.041 10.2734 18.1153C10.5859 19.2578 12.5 24.043 15.7617 26.7481C16.2891 27.1875 16.7578 27.6953 17.1191 28.2813C17.1582 28.3399 17.1875 28.3985 17.2266 28.4571C18.1543 30.0391 19.2578 32.9199 19.2578 37.6563C19.2578 40.2442 18.8184 43.9258 18.5351 46.0352H17.0605C16.0059 46.0352 15.1074 46.8555 15.0684 47.9102C15.0293 49.0235 15.918 49.9317 17.0117 49.9317H32.9492C34.0039 49.9317 34.9023 49.1114 34.9414 48.0567C34.9805 46.9434 34.0918 46.0352 32.998 46.0352H31.4844C31.2012 43.8477 30.7617 40.0196 30.7519 37.5879C30.7519 36.543 29.9316 35.6446 28.8867 35.6055C27.7734 35.5567 26.8555 36.4453 26.8555 37.5489C26.8555 40.0196 27.2558 43.6914 27.5488 46.0254H22.4609C22.7539 43.7696 23.1445 40.2637 23.1445 37.6465C23.1445 34.541 22.7344 31.7969 21.9238 29.4434C22.9199 29.6485 23.9453 29.7559 25 29.7559C27.8906 29.7754 30.6055 28.9649 32.9004 27.5586ZM24.8926 7.08987C27.5683 8.0762 30.2246 9.3262 32.9199 10.8692H16.748C19.2285 9.38479 21.9531 8.12503 24.8926 7.08987ZM18.4277 23.7598C18.0273 23.3887 17.6855 23.1348 17.4609 22.9785C15.2051 20.9473 13.7891 18.0274 13.7891 14.7852V14.7657H36.2012V14.7852C36.2109 20.8985 31.1816 25.8789 25 25.8789C22.5488 25.8789 20.2734 25.0879 18.4277 23.7598Z" fill="#059DFD"/>
<path opacity="0.3" d="M48.9258 3.26172C48.1934 2.46094 47.1387 1.99219 46.0449 1.99219H39.1211C38.0469 1.99219 37.168 2.86133 37.168 3.94531C37.168 5.01953 38.0371 5.89844 39.1211 5.89844H46.0449C45.8398 8.19336 44.8145 12.9102 40.1562 17.6953C39.7168 18.1152 39.4727 18.2324 39.3359 18.2422C39.3164 19.6777 32.8125 26.1816 32.9004 27.5586C33.457 27.2656 37.8125 24.7656 39.9023 23.1738C42.6367 21.0059 44.8535 18.584 46.5332 15.918C48.9746 12.041 49.7363 8.50586 49.9316 6.24023C50.0293 5.14648 49.668 4.07227 48.9258 3.26172Z" fill="#059DFD"/>
<path opacity="0.3" d="M1.07421 3.26172C1.80663 2.46094 2.86132 1.99219 3.95507 1.99219H10.8789C11.9531 1.99219 12.832 2.86133 12.832 3.94531C12.832 5.01953 11.9629 5.89844 10.8789 5.89844H3.95507C4.16015 8.19336 5.18554 12.9102 9.84374 17.6953C10.2832 18.1152 10.5273 18.2324 10.6641 18.2422C10.6836 19.6777 17.1875 26.1816 17.0996 27.5586C16.543 27.2656 12.1875 24.7656 10.0976 23.1738C7.36327 21.0059 5.14648 18.584 3.46679 15.918C1.02538 12.041 0.263665 8.50586 0.0683521 6.24023C-0.0293041 5.14648 0.332024 4.07227 1.07421 3.26172Z" fill="#059DFD"/>
</svg>
